AmiriLatin-Slanted.ufo
<glyph name="dollar" format="2">
	<unicode hex="0024"/>
	<advance width="486"/>
	<outline>
		<contour>
			<point x="285" y="667" type="line"/>
			<point x="293" y="667"/>
			<point x="319" y="667"/>
			<point x="319" y="660" type="curve"/>
			<point x="312" y="618" type="line"/>
			<point x="335" y="613"/>
			<point x="358" y="606"/>
			<point x="393" y="598" type="curve"/>
			<point x="405" y="548"/>
			<point x="403" y="490"/>
			<point x="404" y="465" type="curve"/>
			<point x="399" y="462"/>
			<point x="394" y="461"/>
			<point x="387" y="461" type="curve" smooth="yes"/>
			<point x="383" y="461"/>
			<point x="376" y="463"/>
			<point x="373" y="466" type="curve"/>
			<point x="369" y="499"/>
			<point x="345" y="547"/>
			<point x="305" y="573" type="curve"/>
			<point x="268" y="347" type="line"/>
			<point x="270" y="346"/>
			<point x="272" y="344"/>
			<point x="274" y="343" type="curve" smooth="yes"/>
			<point x="336" y="304"/>
			<point x="438" y="255"/>
			<point x="438" y="162" type="curve" smooth="yes"/>
			<point x="438" y="58"/>
			<point x="342" y="-10"/>
			<point x="241" y="-10" type="curve" smooth="yes"/>
			<point x="230" y="-10"/>
			<point x="220" y="-9"/>
			<point x="209" y="-8" type="curve"/>
			<point x="202" y="-51" type="line"/>
			<point x="193" y="-51"/>
			<point x="168" y="-49"/>
			<point x="168" y="-42" type="curve"/>
			<point x="174" y="-4" type="line"/>
			<point x="136" y="2"/>
			<point x="101" y="12"/>
			<point x="72" y="18" type="curve"/>
			<point x="60" y="74"/>
			<point x="50" y="150"/>
			<point x="50" y="161" type="curve"/>
			<point x="54" y="165"/>
			<point x="67" y="169"/>
			<point x="74" y="169" type="curve" smooth="yes"/>
			<point x="79" y="169"/>
			<point x="83" y="168"/>
			<point x="85" y="164" type="curve"/>
			<point x="90" y="141"/>
			<point x="109" y="64"/>
			<point x="181" y="35" type="curve"/>
			<point x="221" y="277" type="line"/>
			<point x="151" y="318"/>
			<point x="67" y="368"/>
			<point x="67" y="459" type="curve" smooth="yes"/>
			<point x="67" y="559"/>
			<point x="157" y="624"/>
			<point x="251" y="624" type="curve" smooth="yes"/>
			<point x="261" y="624"/>
			<point x="270" y="624"/>
			<point x="278" y="623" type="curve"/>
		</contour>
		<contour>
			<point x="253" y="259" type="curve"/>
			<point x="215" y="26" type="line"/>
			<point x="224" y="25"/>
			<point x="233" y="23"/>
			<point x="243" y="23" type="curve" smooth="yes"/>
			<point x="302" y="23"/>
			<point x="355" y="64"/>
			<point x="355" y="137" type="curve" smooth="yes"/>
			<point x="355" y="206"/>
			<point x="308" y="229"/>
		</contour>
		<contour>
			<point x="236" y="367" type="curve"/>
			<point x="272" y="588" type="line"/>
			<point x="263" y="590"/>
			<point x="254" y="592"/>
			<point x="245" y="592" type="curve" smooth="yes"/>
			<point x="163" y="592"/>
			<point x="143" y="533"/>
			<point x="143" y="488" type="curve" smooth="yes"/>
			<point x="143" y="428"/>
			<point x="187" y="397"/>
		</contour>
	</outline>
</glyph>
<glyph name="plus" format="2">
	<unicode hex="002B"/>
	<advance width="529"/>
	<outline>
		<contour>
			<point x="236" y="463" type="curve"/>
			<point x="252" y="469"/>
			<point x="271" y="474"/>
			<point x="278" y="474" type="curve" smooth="yes"/>
			<point x="288" y="474"/>
			<point x="291" y="468"/>
			<point x="291" y="468" type="curve"/>
			<point x="291" y="268" type="line"/>
			<point x="369" y="268"/>
			<point x="412" y="268"/>
			<point x="490" y="268" type="curve" smooth="yes"/>
			<point x="494" y="268"/>
			<point x="499" y="264"/>
			<point x="499" y="256" type="curve" smooth="yes"/>
			<point x="499" y="240"/>
			<point x="491" y="221"/>
			<point x="483" y="213" type="curve"/>
			<point x="291" y="213" type="line"/>
			<point x="291" y="213"/>
			<point x="291" y="91"/>
			<point x="291" y="16" type="curve"/>
			<point x="279" y="7"/>
			<point x="259" y="5"/>
			<point x="249" y="5" type="curve" smooth="yes"/>
			<point x="242" y="5"/>
			<point x="236" y="10"/>
			<point x="236" y="14" type="curve" smooth="yes"/>
			<point x="236" y="213" type="line"/>
			<point x="36" y="213" type="line"/>
			<point x="36" y="213"/>
			<point x="30" y="213"/>
			<point x="30" y="223" type="curve" smooth="yes"/>
			<point x="30" y="227"/>
			<point x="35" y="260"/>
			<point x="45" y="268" type="curve"/>
			<point x="236" y="268" type="line"/>
			<point x="236" y="268"/>
			<point x="236" y="444"/>
		</contour>
	</outline>
</glyph>
<glyph name="seven" format="2">
	<unicode hex="0037"/>
	<advance width="532"/>
	<outline>
		<contour>
			<point x="398" y="618" type="line" smooth="yes"/>
			<point x="423" y="618"/>
			<point x="459" y="621"/>
			<point x="465" y="621" type="curve" smooth="yes"/>
			<point x="471" y="621"/>
			<point x="471" y="617"/>
			<point x="471" y="612" type="curve" smooth="yes"/>
			<point x="471" y="599"/>
			<point x="456" y="574"/>
			<point x="443" y="547" type="curve" smooth="yes"/>
			<point x="186" y="-2" type="line"/>
			<point x="184" y="-4"/>
			<point x="181" y="-5"/>
			<point x="176" y="-5" type="curve" smooth="yes"/>
			<point x="161" y="-5"/>
			<point x="133" y="4"/>
			<point x="133" y="13" type="curve"/>
			<point x="234" y="165"/>
			<point x="410" y="547"/>
			<point x="410" y="547" type="curve"/>
			<point x="162" y="547" type="line" smooth="yes"/>
			<point x="123" y="547"/>
			<point x="107" y="524"/>
			<point x="92" y="472" type="curve" smooth="yes"/>
			<point x="91" y="467"/>
			<point x="86" y="466"/>
			<point x="80" y="466" type="curve" smooth="yes"/>
			<point x="76" y="466"/>
			<point x="65" y="469"/>
			<point x="61" y="472" type="curve"/>
			<point x="78" y="525"/>
			<point x="95" y="587"/>
			<point x="102" y="618" type="curve"/>
		</contour>
	</outline>
</glyph>
<glyph name="D" format="2">
	<unicode hex="0044"/>
	<advance width="667"/>
	<outline>
		<contour>
			<point x="246" y="533" type="curve" smooth="yes"/>
			<point x="163" y="109" type="line" smooth="yes"/>
			<point x="160" y="95"/>
			<point x="152" y="45"/>
			<point x="155" y="39" type="curve" smooth="yes"/>
			<point x="160" y="28"/>
			<point x="194" y="25"/>
			<point x="227" y="25" type="curve" smooth="yes"/>
			<point x="367" y="25"/>
			<point x="500" y="116"/>
			<point x="537" y="306" type="curve" smooth="yes"/>
			<point x="580" y="527"/>
			<point x="479" y="616"/>
			<point x="330" y="616" type="curve" smooth="yes"/>
			<point x="319" y="616"/>
			<point x="269" y="615"/>
			<point x="264" y="605" type="curve" smooth="yes"/>
			<point x="256" y="589"/>
			<point x="251" y="561"/>
		</contour>
		<contour>
			<point x="360" y="643" type="curve" smooth="yes"/>
			<point x="570" y="643"/>
			<point x="665" y="507"/>
			<point x="630" y="326" type="curve" smooth="yes"/>
			<point x="598" y="160"/>
			<point x="488" y="-2"/>
			<point x="223" y="-3" type="curve"/>
			<point x="-4" y="-3" type="line"/>
			<point x="-8" y="2"/>
			<point x="-4" y="20"/>
			<point x="1" y="25" type="curve"/>
			<point x="12" y="25"/>
			<point x="62" y="30"/>
			<point x="67" y="41" type="curve" smooth="yes"/>
			<point x="75" y="57"/>
			<point x="79" y="84"/>
			<point x="85" y="113" type="curve" smooth="yes"/>
			<point x="166" y="530" type="line" smooth="yes"/>
			<point x="172" y="559"/>
			<point x="178" y="587"/>
			<point x="176" y="603" type="curve" smooth="yes"/>
			<point x="175" y="614"/>
			<point x="128" y="618"/>
			<point x="117" y="618" type="curve"/>
			<point x="114" y="623"/>
			<point x="116" y="641"/>
			<point x="122" y="646" type="curve"/>
			<point x="159" y="644"/>
			<point x="193" y="642"/>
			<point x="228" y="642" type="curve" smooth="yes"/>
			<point x="263" y="642"/>
			<point x="320" y="643"/>
		</contour>
	</outline>
</glyph>
<glyph name="J" format="2">
	<unicode hex="004A"/>
	<advance width="305"/>
	<outline>
		<contour>
			<point x="160" y="530" type="line" smooth="yes"/>
			<point x="165" y="559"/>
			<point x="171" y="587"/>
			<point x="169" y="603" type="curve" smooth="yes"/>
			<point x="168" y="614"/>
			<point x="120" y="618"/>
			<point x="109" y="618" type="curve"/>
			<point x="106" y="623"/>
			<point x="109" y="641"/>
			<point x="115" y="646" type="curve"/>
			<point x="152" y="644"/>
			<point x="186" y="642"/>
			<point x="221" y="642" type="curve" smooth="yes"/>
			<point x="256" y="642"/>
			<point x="291" y="644"/>
			<point x="329" y="646" type="curve"/>
			<point x="333" y="641"/>
			<point x="328" y="623"/>
			<point x="323" y="618" type="curve"/>
			<point x="312" y="618"/>
			<point x="262" y="614"/>
			<point x="257" y="603" type="curve" smooth="yes"/>
			<point x="249" y="587"/>
			<point x="244" y="559"/>
			<point x="239" y="530" type="curve" smooth="yes"/>
			<point x="160" y="113" type="line" smooth="yes"/>
			<point x="111" y="-145"/>
			<point x="-25" y="-228"/>
			<point x="-103" y="-228" type="curve"/>
			<point x="-105" y="-225"/>
			<point x="-105" y="-220"/>
			<point x="-105" y="-215" type="curve" smooth="yes"/>
			<point x="-105" y="-213"/>
			<point x="-104" y="-209"/>
			<point x="-104" y="-209" type="curve"/>
			<point x="5" y="-175"/>
			<point x="48" y="-82"/>
			<point x="82" y="106" type="curve" smooth="yes"/>
		</contour>
	</outline>
</glyph>
<glyph name="V" format="2">
	<unicode hex="0056"/>
	<advance width="582"/>
	<outline>
		<contour>
			<point x="171" y="642" type="curve" smooth="yes"/>
			<point x="211" y="642"/>
			<point x="248" y="644"/>
			<point x="285" y="646" type="curve"/>
			<point x="286" y="640"/>
			<point x="282" y="619"/>
			<point x="278" y="618" type="curve"/>
			<point x="271" y="618"/>
			<point x="222" y="613"/>
			<point x="217" y="586" type="curve" smooth="yes"/>
			<point x="215" y="576"/>
			<point x="215" y="552"/>
			<point x="220" y="517" type="curve" smooth="yes"/>
			<point x="232" y="430"/>
			<point x="278" y="128"/>
			<point x="279" y="125" type="curve"/>
			<point x="283" y="130"/>
			<point x="499" y="512"/>
			<point x="499" y="512" type="curve" smooth="yes"/>
			<point x="512" y="534"/>
			<point x="523" y="562"/>
			<point x="526" y="580" type="curve" smooth="yes"/>
			<point x="532" y="611"/>
			<point x="485" y="618"/>
			<point x="474" y="618" type="curve"/>
			<point x="470" y="620"/>
			<point x="473" y="641"/>
			<point x="479" y="646" type="curve"/>
			<point x="512" y="644"/>
			<point x="542" y="642"/>
			<point x="575" y="642" type="curve" smooth="yes"/>
			<point x="617" y="642"/>
			<point x="627" y="644"/>
			<point x="664" y="646" type="curve"/>
			<point x="666" y="641"/>
			<point x="661" y="618"/>
			<point x="658" y="618" type="curve" smooth="yes"/>
			<point x="651" y="618"/>
			<point x="614" y="613"/>
			<point x="594" y="593" type="curve" smooth="yes"/>
			<point x="580" y="579"/>
			<point x="551" y="531"/>
			<point x="530" y="494" type="curve" smooth="yes"/>
			<point x="263" y="31" type="line" smooth="yes"/>
			<point x="248" y="5"/>
			<point x="234" y="-2"/>
			<point x="222" y="-2" type="curve" smooth="yes"/>
			<point x="218" y="-2"/>
			<point x="217" y="10"/>
			<point x="216" y="14" type="curve" smooth="yes"/>
			<point x="188" y="188"/>
			<point x="170" y="314"/>
			<point x="139" y="502" type="curve" smooth="yes"/>
			<point x="133" y="540"/>
			<point x="127" y="571"/>
			<point x="116" y="596" type="curve" smooth="yes"/>
			<point x="109" y="612"/>
			<point x="72" y="618"/>
			<point x="61" y="618" type="curve" smooth="yes"/>
			<point x="59" y="618"/>
			<point x="65" y="644"/>
			<point x="67" y="646" type="curve"/>
			<point x="108" y="644"/>
			<point x="129" y="642"/>
		</contour>
	</outline>
</glyph>
<glyph name="Y" format="2">
	<unicode hex="0059"/>
	<advance width="542"/>
	<outline>
		<contour>
			<point x="206" y="113" type="curve" smooth="yes"/>
			<point x="234" y="261" type="line" smooth="yes"/>
			<point x="235" y="268"/>
			<point x="236" y="278"/>
			<point x="233" y="288" type="curve" smooth="yes"/>
			<point x="152" y="535" type="line" smooth="yes"/>
			<point x="140" y="571"/>
			<point x="128" y="587"/>
			<point x="106" y="603" type="curve" smooth="yes"/>
			<point x="92" y="613"/>
			<point x="69" y="618"/>
			<point x="58" y="618" type="curve" smooth="yes"/>
			<point x="53" y="618"/>
			<point x="58" y="641"/>
			<point x="64" y="646" type="curve"/>
			<point x="108" y="644"/>
			<point x="131" y="642"/>
			<point x="176" y="642" type="curve" smooth="yes"/>
			<point x="221" y="642"/>
			<point x="256" y="644"/>
			<point x="293" y="646" type="curve"/>
			<point x="294" y="640"/>
			<point x="291" y="618"/>
			<point x="286" y="618" type="curve" smooth="yes"/>
			<point x="273" y="618"/>
			<point x="231" y="612"/>
			<point x="226" y="587" type="curve" smooth="yes"/>
			<point x="224" y="579"/>
			<point x="227" y="571"/>
			<point x="231" y="558" type="curve" smooth="yes"/>
			<point x="309" y="323" type="line"/>
			<point x="371" y="409"/>
			<point x="465" y="548"/>
			<point x="481" y="578" type="curve" smooth="yes"/>
			<point x="483" y="581"/>
			<point x="485" y="587"/>
			<point x="486" y="593" type="curve" smooth="yes"/>
			<point x="487" y="599"/>
			<point x="476" y="617"/>
			<point x="425" y="617" type="curve"/>
			<point x="422" y="620"/>
			<point x="426" y="642"/>
			<point x="429" y="646" type="curve"/>
			<point x="462" y="644"/>
			<point x="487" y="641"/>
			<point x="520" y="641" type="curve" smooth="yes"/>
			<point x="567" y="641"/>
			<point x="583" y="644"/>
			<point x="620" y="646" type="curve"/>
			<point x="620" y="643"/>
			<point x="615" y="617"/>
			<point x="612" y="617" type="curve" smooth="yes"/>
			<point x="605" y="617"/>
			<point x="553" y="617"/>
			<point x="525" y="578" type="curve" smooth="yes"/>
			<point x="325" y="294" type="line" smooth="yes"/>
			<point x="317" y="283"/>
			<point x="317" y="273"/>
			<point x="315" y="264" type="curve" smooth="yes"/>
			<point x="285" y="113" type="line" smooth="yes"/>
			<point x="279" y="84"/>
			<point x="273" y="57"/>
			<point x="275" y="41" type="curve" smooth="yes"/>
			<point x="276" y="30"/>
			<point x="324" y="25"/>
			<point x="335" y="25" type="curve"/>
			<point x="338" y="20"/>
			<point x="336" y="2"/>
			<point x="330" y="-3" type="curve"/>
			<point x="293" y="-1"/>
			<point x="260" y="2"/>
			<point x="225" y="2" type="curve" smooth="yes"/>
			<point x="190" y="2"/>
			<point x="154" y="-1"/>
			<point x="116" y="-3" type="curve"/>
			<point x="112" y="2"/>
			<point x="117" y="20"/>
			<point x="122" y="25" type="curve"/>
			<point x="133" y="25"/>
			<point x="183" y="30"/>
			<point x="188" y="41" type="curve" smooth="yes"/>
			<point x="196" y="57"/>
			<point x="200" y="84"/>
		</contour>
	</outline>
</glyph>
<glyph name="Z" format="2">
	<unicode hex="005A"/>
	<advance width="587"/>
	<outline>
		<contour>
			<point x="273" y="614" type="line" smooth="yes"/>
			<point x="211" y="614"/>
			<point x="157" y="560"/>
			<point x="122" y="480" type="curve" smooth="yes"/>
			<point x="120" y="477"/>
			<point x="117" y="477"/>
			<point x="112" y="477" type="curve" smooth="yes"/>
			<point x="104" y="477"/>
			<point x="91" y="481"/>
			<point x="89" y="484" type="curve"/>
			<point x="113" y="529"/>
			<point x="133" y="587"/>
			<point x="152" y="653" type="curve"/>
			<point x="171" y="650"/>
			<point x="201" y="646"/>
			<point x="225" y="646" type="curve" smooth="yes"/>
			<point x="402" y="646" type="line" smooth="yes"/>
			<point x="478" y="646"/>
			<point x="517" y="649"/>
			<point x="594" y="655" type="curve"/>
			<point x="598" y="654"/>
			<point x="608" y="642"/>
			<point x="606" y="634" type="curve" smooth="yes"/>
			<point x="603" y="626"/>
			<point x="304" y="264"/>
			<point x="100" y="31" type="curve"/>
			<point x="339" y="31" type="line" smooth="yes"/>
			<point x="384" y="31"/>
			<point x="421" y="56"/>
			<point x="446" y="83" type="curve" smooth="yes"/>
			<point x="471" y="110"/>
			<point x="488" y="143"/>
			<point x="501" y="168" type="curve" smooth="yes"/>
			<point x="502" y="170"/>
			<point x="509" y="171"/>
			<point x="514" y="171" type="curve" smooth="yes"/>
			<point x="523" y="171"/>
			<point x="532" y="166"/>
			<point x="535" y="162" type="curve"/>
			<point x="498" y="85"/>
			<point x="482" y="49"/>
			<point x="463" y="0" type="curve"/>
			<point x="4" y="0" type="line" smooth="yes"/>
			<point x="-6" y="0"/>
			<point x="-14" y="8"/>
			<point x="-9" y="14" type="curve" smooth="yes"/>
			<point x="497" y="615" type="line"/>
		</contour>
	</outline>
</glyph>
<glyph name="b" format="2">
	<unicode hex="0062"/>
	<advance width="418"/>
	<outline>
		<contour>
			<point x="269" y="371" type="curve" smooth="yes"/>
			<point x="227" y="371"/>
			<point x="136" y="259"/>
			<point x="115" y="152" type="curve" smooth="yes"/>
			<point x="99" y="73"/>
			<point x="114" y="26"/>
			<point x="160" y="26" type="curve" smooth="yes"/>
			<point x="242" y="26"/>
			<point x="307" y="216"/>
			<point x="307" y="295" type="curve" smooth="yes"/>
			<point x="307" y="331"/>
			<point x="303" y="371"/>
		</contour>
		<contour>
			<point x="140" y="278" type="line"/>
			<point x="208" y="392"/>
			<point x="280" y="425"/>
			<point x="311" y="425" type="curve" smooth="yes"/>
			<point x="356" y="425"/>
			<point x="379" y="381"/>
			<point x="379" y="314" type="curve" smooth="yes"/>
			<point x="379" y="138"/>
			<point x="237" y="-6"/>
			<point x="133" y="-6" type="curve" smooth="yes"/>
			<point x="78" y="-6"/>
			<point x="42" y="36"/>
			<point x="42" y="108" type="curve" smooth="yes"/>
			<point x="42" y="118"/>
			<point x="46" y="142"/>
			<point x="48" y="154" type="curve" smooth="yes"/>
			<point x="125" y="546" type="line" smooth="yes"/>
			<point x="129" y="564"/>
			<point x="134" y="587"/>
			<point x="134" y="598" type="curve" smooth="yes"/>
			<point x="134" y="617"/>
			<point x="90" y="616"/>
			<point x="74" y="616" type="curve"/>
			<point x="71" y="620"/>
			<point x="74" y="633"/>
			<point x="78" y="637" type="curve"/>
			<point x="132" y="642"/>
			<point x="186" y="661"/>
			<point x="207" y="669" type="curve"/>
			<point x="212" y="666"/>
			<point x="213" y="656"/>
			<point x="213" y="650" type="curve" smooth="yes"/>
			<point x="213" y="642"/>
			<point x="205" y="601"/>
			<point x="200" y="577" type="curve" smooth="yes"/>
		</contour>
	</outline>
</glyph>
<glyph name="d" format="2">
	<unicode hex="0064"/>
	<advance width="438"/>
	<outline>
		<contour>
			<point x="289" y="333" type="line" smooth="yes"/>
			<point x="293" y="355"/>
			<point x="281" y="386"/>
			<point x="255" y="386" type="curve" smooth="yes"/>
			<point x="176" y="386"/>
			<point x="91" y="258"/>
			<point x="91" y="146" type="curve" smooth="yes"/>
			<point x="91" y="92"/>
			<point x="105" y="52"/>
			<point x="141" y="52" type="curve" smooth="yes"/>
			<point x="191" y="52"/>
			<point x="258" y="175"/>
			<point x="277" y="270" type="curve"/>
		</contour>
		<contour>
			<point x="331" y="546" type="line" smooth="yes"/>
			<point x="334" y="564"/>
			<point x="340" y="587"/>
			<point x="340" y="598" type="curve" smooth="yes"/>
			<point x="340" y="617"/>
			<point x="296" y="616"/>
			<point x="280" y="616" type="curve"/>
			<point x="277" y="620"/>
			<point x="280" y="633"/>
			<point x="284" y="637" type="curve"/>
			<point x="338" y="642"/>
			<point x="392" y="661"/>
			<point x="413" y="669" type="curve"/>
			<point x="418" y="666"/>
			<point x="419" y="656"/>
			<point x="419" y="650" type="curve" smooth="yes"/>
			<point x="419" y="642"/>
			<point x="411" y="601"/>
			<point x="406" y="577" type="curve" smooth="yes"/>
			<point x="314" y="104" type="line" smooth="yes"/>
			<point x="313" y="100"/>
			<point x="311" y="76"/>
			<point x="311" y="71" type="curve" smooth="yes"/>
			<point x="311" y="62"/>
			<point x="310" y="48"/>
			<point x="320" y="48" type="curve" smooth="yes"/>
			<point x="341" y="48"/>
			<point x="386" y="101"/>
			<point x="389" y="104" type="curve"/>
			<point x="392" y="104"/>
			<point x="398" y="92"/>
			<point x="398" y="86" type="curve"/>
			<point x="387" y="67"/>
			<point x="317" y="-6"/>
			<point x="271" y="-6" type="curve" smooth="yes"/>
			<point x="250" y="-6"/>
			<point x="237" y="16"/>
			<point x="237" y="45" type="curve" smooth="yes"/>
			<point x="237" y="53"/>
			<point x="240" y="76"/>
			<point x="244" y="97" type="curve" smooth="yes"/>
			<point x="248" y="116"/>
			<point x="248" y="120"/>
			<point x="249" y="127" type="curve"/>
			<point x="234" y="98"/>
			<point x="163" y="-5"/>
			<point x="104" y="-5" type="curve" smooth="yes"/>
			<point x="43" y="-5"/>
			<point x="19" y="56"/>
			<point x="19" y="113" type="curve" smooth="yes"/>
			<point x="19" y="266"/>
			<point x="169" y="425"/>
			<point x="296" y="425" type="curve" smooth="yes"/>
			<point x="320" y="425"/>
			<point x="303" y="425"/>
			<point x="309" y="425" type="curve"/>
		</contour>
	</outline>
</glyph>
<glyph name="m" format="2">
	<unicode hex="006D"/>
	<advance width="697"/>
	<outline>
		<contour>
			<point x="505" y="97" type="curve" smooth="yes"/>
			<point x="539" y="258" type="line" smooth="yes"/>
			<point x="541" y="267"/>
			<point x="546" y="300"/>
			<point x="546" y="311" type="curve" smooth="yes"/>
			<point x="546" y="336"/>
			<point x="545" y="353"/>
			<point x="527" y="353" type="curve" smooth="yes"/>
			<point x="488" y="353"/>
			<point x="376" y="228"/>
			<point x="357" y="129" type="curve" smooth="yes"/>
			<point x="333" y="0" type="line"/>
			<point x="319" y="-2"/>
			<point x="311" y="-3"/>
			<point x="297" y="-3" type="curve" smooth="yes"/>
			<point x="283" y="-3"/>
			<point x="276" y="-2"/>
			<point x="263" y="0" type="curve"/>
			<point x="317" y="277" type="line" smooth="yes"/>
			<point x="320" y="293"/>
			<point x="321" y="305"/>
			<point x="321" y="314" type="curve" smooth="yes"/>
			<point x="321" y="339"/>
			<point x="315" y="353"/>
			<point x="302" y="353" type="curve" smooth="yes"/>
			<point x="258" y="353"/>
			<point x="155" y="213"/>
			<point x="135" y="119" type="curve" smooth="yes"/>
			<point x="110" y="0" type="line"/>
			<point x="99" y="-3"/>
			<point x="89" y="-4"/>
			<point x="75" y="-4" type="curve" smooth="yes"/>
			<point x="61" y="-4"/>
			<point x="53" y="-2"/>
			<point x="41" y="0" type="curve"/>
			<point x="105" y="315" type="line" smooth="yes"/>
			<point x="106" y="321"/>
			<point x="109" y="342"/>
			<point x="109" y="347" type="curve" smooth="yes"/>
			<point x="109" y="356"/>
			<point x="110" y="371"/>
			<point x="100" y="371" type="curve" smooth="yes"/>
			<point x="79" y="371"/>
			<point x="34" y="317"/>
			<point x="31" y="314" type="curve"/>
			<point x="28" y="314"/>
			<point x="21" y="327"/>
			<point x="21" y="333" type="curve"/>
			<point x="32" y="352"/>
			<point x="99" y="425"/>
			<point x="145" y="425" type="curve" smooth="yes"/>
			<point x="166" y="425"/>
			<point x="183" y="403"/>
			<point x="183" y="374" type="curve" smooth="yes"/>
			<point x="183" y="366"/>
			<point x="179" y="343"/>
			<point x="175" y="322" type="curve" smooth="yes"/>
			<point x="168" y="287"/>
			<point x="163" y="266"/>
			<point x="155" y="231" type="curve"/>
			<point x="190" y="293"/>
			<point x="278" y="425"/>
			<point x="329" y="425" type="curve" smooth="yes"/>
			<point x="386" y="425"/>
			<point x="395" y="375"/>
			<point x="395" y="332" type="curve" smooth="yes"/>
			<point x="395" y="309"/>
			<point x="387" y="262"/>
			<point x="381" y="245" type="curve"/>
			<point x="416" y="307"/>
			<point x="510" y="425"/>
			<point x="561" y="425" type="curve" smooth="yes"/>
			<point x="606" y="425"/>
			<point x="621" y="400"/>
			<point x="621" y="360" type="curve" smooth="yes"/>
			<point x="621" y="327"/>
			<point x="614" y="285"/>
			<point x="607" y="254" type="curve" smooth="yes"/>
			<point x="575" y="104" type="line" smooth="yes"/>
			<point x="573" y="94"/>
			<point x="571" y="77"/>
			<point x="571" y="72" type="curve" smooth="yes"/>
			<point x="571" y="63"/>
			<point x="571" y="48"/>
			<point x="581" y="48" type="curve" smooth="yes"/>
			<point x="602" y="48"/>
			<point x="646" y="101"/>
			<point x="649" y="104" type="curve"/>
			<point x="652" y="104"/>
			<point x="659" y="92"/>
			<point x="659" y="86" type="curve"/>
			<point x="648" y="67"/>
			<point x="577" y="-6"/>
			<point x="531" y="-6" type="curve" smooth="yes"/>
			<point x="510" y="-6"/>
			<point x="498" y="16"/>
			<point x="498" y="45" type="curve" smooth="yes"/>
			<point x="498" y="53"/>
			<point x="501" y="76"/>
		</contour>
	</outline>
</glyph>
<glyph name="q" format="2">
	<unicode hex="0071"/>
	<advance width="416"/>
	<outline>
		<contour>
			<point x="310" y="-223" type="curve"/>
			<point x="296" y="-223"/>
			<point x="284" y="-222"/>
			<point x="271" y="-222" type="curve" smooth="yes"/>
			<point x="214" y="-222"/>
			<point x="160" y="-225"/>
			<point x="124" y="-229" type="curve"/>
			<point x="122" y="-227"/>
			<point x="121" y="-203"/>
			<point x="127" y="-203" type="curve" smooth="yes"/>
			<point x="155" y="-200"/>
			<point x="188" y="-192"/>
			<point x="193" y="-167" type="curve" smooth="yes"/>
			<point x="248" y="127" type="line"/>
			<point x="228" y="92"/>
			<point x="161" y="-5"/>
			<point x="104" y="-5" type="curve" smooth="yes"/>
			<point x="43" y="-5"/>
			<point x="19" y="56"/>
			<point x="19" y="113" type="curve" smooth="yes"/>
			<point x="19" y="266"/>
			<point x="169" y="425"/>
			<point x="296" y="425" type="curve" smooth="yes"/>
			<point x="330" y="425"/>
			<point x="354" y="419"/>
			<point x="373" y="412" type="curve"/>
			<point x="313" y="104" type="line" smooth="yes"/>
			<point x="312" y="100"/>
			<point x="269" y="-146"/>
			<point x="269" y="-146" type="curve" smooth="yes"/>
			<point x="268" y="-154"/>
			<point x="267" y="-161"/>
			<point x="267" y="-167" type="curve" smooth="yes"/>
			<point x="267" y="-181"/>
			<point x="269" y="-196"/>
			<point x="312" y="-196" type="curve" smooth="yes"/>
			<point x="316" y="-196"/>
			<point x="315" y="-220"/>
		</contour>
		<contour>
			<point x="289" y="333" type="line" smooth="yes"/>
			<point x="293" y="355"/>
			<point x="281" y="386"/>
			<point x="255" y="386" type="curve" smooth="yes"/>
			<point x="176" y="386"/>
			<point x="91" y="258"/>
			<point x="91" y="146" type="curve" smooth="yes"/>
			<point x="91" y="92"/>
			<point x="105" y="52"/>
			<point x="141" y="52" type="curve" smooth="yes"/>
			<point x="191" y="52"/>
			<point x="258" y="175"/>
			<point x="277" y="270" type="curve"/>
		</contour>
	</outline>
</glyph>
<glyph name="sterling" format="2">
	<unicode hex="00A3"/>
	<advance width="436"/>
	<outline>
		<contour>
			<point x="65" y="312" type="curve"/>
			<point x="91" y="312"/>
			<point x="291" y="312"/>
			<point x="304" y="312" type="curve"/>
			<point x="308" y="312"/>
			<point x="299" y="280"/>
			<point x="287" y="273" type="curve"/>
			<point x="261" y="273"/>
			<point x="62" y="273"/>
			<point x="49" y="273" type="curve"/>
			<point x="44" y="286"/>
			<point x="55" y="302"/>
		</contour>
		<contour>
			<point x="168" y="242" type="curve" smooth="yes"/>
			<point x="154" y="169"/>
			<point x="114" y="115"/>
			<point x="85" y="86" type="curve"/>
			<point x="103" y="93"/>
			<point x="118" y="91"/>
			<point x="158" y="91" type="curve" smooth="yes"/>
			<point x="207" y="91"/>
			<point x="260" y="60"/>
			<point x="295" y="60" type="curve" smooth="yes"/>
			<point x="335" y="60"/>
			<point x="358" y="109"/>
			<point x="375" y="131" type="curve"/>
			<point x="379" y="131"/>
			<point x="384" y="124"/>
			<point x="384" y="114" type="curve" smooth="yes"/>
			<point x="384" y="110"/>
			<point x="383" y="107"/>
			<point x="382" y="105" type="curve" smooth="yes"/>
			<point x="362" y="69"/>
			<point x="317" y="-8"/>
			<point x="253" y="-8" type="curve" smooth="yes"/>
			<point x="194" y="-8"/>
			<point x="132" y="28"/>
			<point x="87" y="28" type="curve" smooth="yes"/>
			<point x="59" y="28"/>
			<point x="31" y="7"/>
			<point x="12" y="-9" type="curve"/>
			<point x="0" y="-9"/>
			<point x="-3" y="4"/>
			<point x="-2" y="10" type="curve"/>
			<point x="19" y="39"/>
			<point x="35" y="55"/>
			<point x="55" y="80" type="curve"/>
			<point x="76" y="125"/>
			<point x="88" y="176"/>
			<point x="99" y="231" type="curve" smooth="yes"/>
			<point x="107" y="274"/>
			<point x="104" y="347"/>
			<point x="116" y="407" type="curve" smooth="yes"/>
			<point x="140" y="530"/>
			<point x="233" y="620"/>
			<point x="331" y="620" type="curve" smooth="yes"/>
			<point x="365" y="620"/>
			<point x="384" y="607"/>
			<point x="394" y="584" type="curve"/>
			<point x="394" y="560"/>
			<point x="379" y="526"/>
			<point x="356" y="526" type="curve" smooth="yes"/>
			<point x="319" y="526"/>
			<point x="324" y="579"/>
			<point x="287" y="579" type="curve" smooth="yes"/>
			<point x="225" y="579"/>
			<point x="202" y="505"/>
			<point x="189" y="439" type="curve" smooth="yes"/>
			<point x="178" y="381"/>
			<point x="177" y="289"/>
		</contour>
	</outline>
</glyph>
<glyph name="registered" format="2">
	<unicode hex="00AE"/>
	<advance width="643"/>
	<outline>
		<contour>
			<point x="315" y="540" type="curve" smooth="yes"/>
			<point x="353" y="540"/>
			<point x="404" y="515"/>
			<point x="404" y="468" type="curve" smooth="yes"/>
			<point x="404" y="438"/>
			<point x="378" y="410"/>
			<point x="350" y="400" type="curve"/>
			<point x="372" y="364"/>
			<point x="393" y="336"/>
			<point x="420" y="303" type="curve" smooth="yes"/>
			<point x="433" y="288"/>
			<point x="444" y="282"/>
			<point x="467" y="280" type="curve"/>
			<point x="469" y="278"/>
			<point x="466" y="267"/>
			<point x="466" y="266" type="curve"/>
			<point x="438" y="266"/>
			<point x="408" y="268"/>
			<point x="400" y="271" type="curve" smooth="yes"/>
			<point x="394" y="273"/>
			<point x="383" y="276"/>
			<point x="373" y="289" type="curve" smooth="yes"/>
			<point x="367" y="297"/>
			<point x="330" y="348"/>
			<point x="304" y="388" type="curve" smooth="yes"/>
			<point x="302" y="392"/>
			<point x="298" y="393"/>
			<point x="292" y="393" type="curve" smooth="yes"/>
			<point x="292" y="393"/>
			<point x="281" y="393"/>
			<point x="277" y="393" type="curve"/>
			<point x="277" y="317" type="line"/>
			<point x="277" y="305"/>
			<point x="277" y="294"/>
			<point x="279" y="287" type="curve" smooth="yes"/>
			<point x="280" y="282"/>
			<point x="303" y="280"/>
			<point x="308" y="280" type="curve"/>
			<point x="310" y="278"/>
			<point x="310" y="268"/>
			<point x="308" y="266" type="curve"/>
			<point x="291" y="267"/>
			<point x="271" y="268"/>
			<point x="255" y="268" type="curve" smooth="yes"/>
			<point x="239" y="268"/>
			<point x="218" y="267"/>
			<point x="201" y="266" type="curve"/>
			<point x="199" y="268"/>
			<point x="199" y="278"/>
			<point x="201" y="280" type="curve"/>
			<point x="206" y="280"/>
			<point x="228" y="282"/>
			<point x="229" y="287" type="curve" smooth="yes"/>
			<point x="231" y="294"/>
			<point x="231" y="304"/>
			<point x="231" y="317" type="curve" smooth="yes"/>
			<point x="231" y="490" type="line" smooth="yes"/>
			<point x="231" y="502"/>
			<point x="231" y="513"/>
			<point x="229" y="520" type="curve" smooth="yes"/>
			<point x="228" y="525"/>
			<point x="206" y="527"/>
			<point x="201" y="527" type="curve"/>
			<point x="199" y="529"/>
			<point x="199" y="539"/>
			<point x="201" y="541" type="curve"/>
			<point x="218" y="540"/>
			<point x="241" y="539"/>
			<point x="257" y="539" type="curve" smooth="yes"/>
			<point x="273" y="539"/>
			<point x="291" y="540"/>
		</contour>
		<contour>
			<point x="357" y="458" type="curve" smooth="yes"/>
			<point x="357" y="495"/>
			<point x="346" y="523"/>
			<point x="300" y="523" type="curve" smooth="yes"/>
			<point x="295" y="523"/>
			<point x="281" y="523"/>
			<point x="279" y="519" type="curve" smooth="yes"/>
			<point x="277" y="514"/>
			<point x="277" y="501"/>
			<point x="277" y="488" type="curve" smooth="yes"/>
			<point x="277" y="411" type="line"/>
			<point x="277" y="411"/>
			<point x="288" y="411"/>
			<point x="295" y="411" type="curve" smooth="yes"/>
			<point x="330" y="411"/>
			<point x="357" y="426"/>
		</contour>
		<contour>
			<point x="87" y="397" type="curve" smooth="yes"/>
			<point x="87" y="267"/>
			<point x="192" y="161"/>
			<point x="322" y="161" type="curve" smooth="yes"/>
			<point x="452" y="161"/>
			<point x="559" y="267"/>
			<point x="559" y="397" type="curve" smooth="yes"/>
			<point x="559" y="527"/>
			<point x="452" y="633"/>
			<point x="322" y="633" type="curve" smooth="yes"/>
			<point x="192" y="633"/>
			<point x="87" y="527"/>
		</contour>
		<contour>
			<point x="55" y="397" type="curve" smooth="yes"/>
			<point x="55" y="544"/>
			<point x="174" y="664"/>
			<point x="321" y="664" type="curve" smooth="yes"/>
			<point x="468" y="664"/>
			<point x="589" y="544"/>
			<point x="589" y="397" type="curve" smooth="yes"/>
			<point x="589" y="250"/>
			<point x="468" y="130"/>
			<point x="321" y="130" type="curve" smooth="yes"/>
			<point x="174" y="130"/>
			<point x="55" y="250"/>
		</contour>
	</outline>
</glyph>
<glyph name="plusminus" format="2">
	<unicode hex="00B1"/>
	<advance width="535"/>
	<outline>
		<contour>
			<point x="48" y="61" type="curve"/>
			<point x="126" y="61"/>
			<point x="447" y="61"/>
			<point x="493" y="61" type="curve" smooth="yes"/>
			<point x="497" y="61"/>
			<point x="502" y="57"/>
			<point x="502" y="49" type="curve" smooth="yes"/>
			<point x="502" y="33"/>
			<point x="494" y="14"/>
			<point x="486" y="6" type="curve"/>
			<point x="39" y="6" type="line"/>
			<point x="39" y="6"/>
			<point x="33" y="6"/>
			<point x="33" y="16" type="curve" smooth="yes"/>
			<point x="33" y="20"/>
			<point x="38" y="53"/>
		</contour>
		<contour>
			<point x="48" y="353" type="curve"/>
			<point x="239" y="353" type="line"/>
			<point x="239" y="353"/>
			<point x="239" y="529"/>
			<point x="239" y="548" type="curve"/>
			<point x="255" y="554"/>
			<point x="274" y="559"/>
			<point x="281" y="559" type="curve" smooth="yes"/>
			<point x="291" y="559"/>
			<point x="294" y="553"/>
			<point x="294" y="553" type="curve"/>
			<point x="294" y="353" type="line"/>
			<point x="372" y="353"/>
			<point x="415" y="353"/>
			<point x="493" y="353" type="curve" smooth="yes"/>
			<point x="497" y="353"/>
			<point x="502" y="349"/>
			<point x="502" y="341" type="curve" smooth="yes"/>
			<point x="502" y="325"/>
			<point x="494" y="306"/>
			<point x="486" y="298" type="curve"/>
			<point x="294" y="298" type="line"/>
			<point x="294" y="298"/>
			<point x="294" y="176"/>
			<point x="294" y="101" type="curve"/>
			<point x="282" y="92"/>
			<point x="262" y="90"/>
			<point x="252" y="90" type="curve" smooth="yes"/>
			<point x="245" y="90"/>
			<point x="239" y="95"/>
			<point x="239" y="99" type="curve" smooth="yes"/>
			<point x="239" y="298" type="line"/>
			<point x="39" y="298" type="line"/>
			<point x="39" y="298"/>
			<point x="33" y="298"/>
			<point x="33" y="308" type="curve" smooth="yes"/>
			<point x="33" y="312"/>
			<point x="38" y="345"/>
		</contour>
	</outline>
</glyph>
<glyph name="multiply" format="2">
	<unicode hex="00D7"/>
	<advance width="453"/>
	<outline>
		<contour>
			<point x="194" y="241" type="curve"/>
			<point x="54" y="382" type="line"/>
			<point x="54" y="396"/>
			<point x="68" y="419"/>
			<point x="77" y="419" type="curve" smooth="yes"/>
			<point x="80" y="419"/>
			<point x="82" y="419"/>
			<point x="84" y="417" type="curve" smooth="yes"/>
			<point x="84" y="417"/>
			<point x="227" y="278"/>
			<point x="229" y="276" type="curve"/>
			<point x="371" y="417" type="line" smooth="yes"/>
			<point x="372" y="418"/>
			<point x="374" y="419"/>
			<point x="377" y="419" type="curve" smooth="yes"/>
			<point x="386" y="419"/>
			<point x="398" y="390"/>
			<point x="398" y="380" type="curve"/>
			<point x="398" y="380"/>
			<point x="265" y="247"/>
			<point x="262" y="244" type="curve"/>
			<point x="263" y="243"/>
			<point x="398" y="103"/>
			<point x="398" y="103" type="curve"/>
			<point x="398" y="88"/>
			<point x="388" y="63"/>
			<point x="377" y="63" type="curve" smooth="yes"/>
			<point x="375" y="63"/>
			<point x="371" y="64"/>
			<point x="370" y="65" type="curve" smooth="yes"/>
			<point x="370" y="65"/>
			<point x="228" y="208"/>
			<point x="227" y="209" type="curve"/>
			<point x="225" y="207"/>
			<point x="81" y="64"/>
			<point x="81" y="64" type="curve" smooth="yes"/>
			<point x="80" y="63"/>
			<point x="77" y="62"/>
			<point x="75" y="62" type="curve" smooth="yes"/>
			<point x="66" y="62"/>
			<point x="54" y="93"/>
			<point x="54" y="103" type="curve"/>
			<point x="54" y="103"/>
			<point x="190" y="237"/>
		</contour>
	</outline>
</glyph>
<glyph name="germandbls" format="2">
	<unicode hex="00DF"/>
	<advance width="488"/>
	<outline>
		<contour>
			<point x="199" y="403" type="curve" smooth="yes"/>
			<point x="173" y="260"/>
			<point x="156" y="165"/>
			<point x="133" y="42" type="curve" smooth="yes"/>
			<point x="102" y="-118"/>
			<point x="9" y="-228"/>
			<point x="-69" y="-228" type="curve" smooth="yes"/>
			<point x="-97" y="-228"/>
			<point x="-115" y="-216"/>
			<point x="-122" y="-203" type="curve"/>
			<point x="-122" y="-198"/>
			<point x="-122" y="-193"/>
			<point x="-121" y="-187" type="curve" smooth="yes"/>
			<point x="-118" y="-167"/>
			<point x="-110" y="-148"/>
			<point x="-93" y="-148" type="curve" smooth="yes"/>
			<point x="-76" y="-148"/>
			<point x="-67" y="-159"/>
			<point x="-56" y="-171" type="curve" smooth="yes"/>
			<point x="-49" y="-178"/>
			<point x="-41" y="-186"/>
			<point x="-27" y="-186" type="curve" smooth="yes"/>
			<point x="11" y="-186"/>
			<point x="31" y="-117"/>
			<point x="61" y="38" type="curve"/>
			<point x="119" y="367" type="line"/>
			<point x="36" y="367" type="line" smooth="yes"/>
			<point x="35" y="367"/>
			<point x="34" y="368"/>
			<point x="34" y="370" type="curve" smooth="yes"/>
			<point x="34" y="380"/>
			<point x="57" y="403"/>
			<point x="79" y="403" type="curve" smooth="yes"/>
			<point x="125" y="403" type="line"/>
			<point x="156" y="563"/>
			<point x="249" y="669"/>
			<point x="327" y="669" type="curve" smooth="yes"/>
			<point x="377" y="669"/>
			<point x="442" y="636"/>
			<point x="442" y="559" type="curve" smooth="yes"/>
			<point x="442" y="473"/>
			<point x="385" y="442"/>
			<point x="357" y="416" type="curve" smooth="yes"/>
			<point x="331" y="392"/>
			<point x="302" y="367"/>
			<point x="302" y="344" type="curve" smooth="yes"/>
			<point x="302" y="318"/>
			<point x="331" y="292"/>
			<point x="354" y="266" type="curve" smooth="yes"/>
			<point x="393" y="221"/>
			<point x="436" y="184"/>
			<point x="436" y="119" type="curve" smooth="yes"/>
			<point x="436" y="48"/>
			<point x="378" y="-4"/>
			<point x="301" y="-4" type="curve" smooth="yes"/>
			<point x="242" y="-4"/>
			<point x="217" y="17"/>
			<point x="203" y="31" type="curve"/>
			<point x="201" y="37"/>
			<point x="197" y="49"/>
			<point x="198" y="57" type="curve" smooth="yes"/>
			<point x="200" y="84"/>
			<point x="216" y="97"/>
			<point x="237" y="97" type="curve" smooth="yes"/>
			<point x="265" y="97"/>
			<point x="274" y="25"/>
			<point x="322" y="25" type="curve" smooth="yes"/>
			<point x="361" y="25"/>
			<point x="374" y="55"/>
			<point x="374" y="86" type="curve" smooth="yes"/>
			<point x="374" y="128"/>
			<point x="326" y="182"/>
			<point x="301" y="211" type="curve" smooth="yes"/>
			<point x="273" y="243"/>
			<point x="246" y="271"/>
			<point x="246" y="316" type="curve" smooth="yes"/>
			<point x="246" y="360"/>
			<point x="270" y="371"/>
			<point x="324" y="425" type="curve" smooth="yes"/>
			<point x="351" y="452"/>
			<point x="375" y="483"/>
			<point x="375" y="534" type="curve" smooth="yes"/>
			<point x="375" y="594"/>
			<point x="333" y="627"/>
			<point x="293" y="627" type="curve" smooth="yes"/>
			<point x="250" y="627"/>
			<point x="228" y="559"/>
		</contour>
	</outline>
</glyph>
<glyph name="dcroat" format="2">
	<unicode hex="0111"/>
	<advance width="435"/>
	<outline>
		<contour>
			<point x="250" y="552" type="curve"/>
			<point x="274" y="552"/>
			<point x="462" y="552"/>
			<point x="474" y="552" type="curve" smooth="yes"/>
			<point x="477" y="552"/>
			<point x="478" y="548"/>
			<point x="477" y="544" type="curve" smooth="yes"/>
			<point x="476" y="539"/>
			<point x="471" y="527"/>
			<point x="466" y="519" type="curve"/>
			<point x="442" y="519"/>
			<point x="253" y="519"/>
			<point x="241" y="519" type="curve" smooth="yes"/>
			<point x="238" y="519"/>
			<point x="238" y="525"/>
			<point x="239" y="529" type="curve" smooth="yes"/>
			<point x="240" y="534"/>
			<point x="243" y="544"/>
		</contour>
		<component base="d"/>
	</outline>
</glyph>
<glyph name="eogonek" format="2">
	<unicode hex="0119"/>
	<advance width="354"/>
	<outline>
		<contour>
			<point x="103" y="213" type="curve"/>
			<point x="141" y="213"/>
			<point x="260" y="274"/>
			<point x="260" y="346" type="curve" smooth="yes"/>
			<point x="260" y="372"/>
			<point x="238" y="385"/>
			<point x="219" y="385" type="curve" smooth="yes"/>
			<point x="152" y="385"/>
			<point x="108" y="263"/>
		</contour>
		<contour>
			<point x="20" y="-176" type="curve" smooth="yes"/>
			<point x="19" y="-128"/>
			<point x="112" y="-29"/>
			<point x="138" y="-6" type="curve"/>
			<point x="135" y="-6"/>
			<point x="133" y="-6"/>
			<point x="130" y="-6" type="curve" smooth="yes"/>
			<point x="61" y="-6"/>
			<point x="22" y="45"/>
			<point x="22" y="136" type="curve" smooth="yes"/>
			<point x="22" y="281"/>
			<point x="156" y="425"/>
			<point x="268" y="425" type="curve" smooth="yes"/>
			<point x="318" y="425"/>
			<point x="332" y="393"/>
			<point x="332" y="364" type="curve" smooth="yes"/>
			<point x="332" y="270"/>
			<point x="162" y="188"/>
			<point x="101" y="188" type="curve"/>
			<point x="100" y="185"/>
			<point x="99" y="162"/>
			<point x="99" y="157" type="curve" smooth="yes"/>
			<point x="99" y="97"/>
			<point x="117" y="52"/>
			<point x="166" y="52" type="curve" smooth="yes"/>
			<point x="210" y="52"/>
			<point x="264" y="116"/>
			<point x="267" y="119" type="curve"/>
			<point x="270" y="119"/>
			<point x="278" y="106"/>
			<point x="278" y="100" type="curve"/>
			<point x="273" y="91"/>
			<point x="259" y="74"/>
			<point x="238" y="53" type="curve" smooth="yes"/>
			<point x="184" y="0"/>
			<point x="71" y="-97"/>
			<point x="71" y="-136" type="curve" smooth="yes"/>
			<point x="71" y="-151"/>
			<point x="78" y="-167"/>
			<point x="102" y="-167" type="curve" smooth="yes"/>
			<point x="148" y="-167"/>
			<point x="177" y="-130"/>
			<point x="183" y="-130" type="curve" smooth="yes"/>
			<point x="191" y="-130"/>
			<point x="180" y="-156"/>
			<point x="177" y="-159" type="curve" smooth="yes"/>
			<point x="152" y="-187"/>
			<point x="109" y="-225"/>
			<point x="68" y="-225" type="curve" smooth="yes"/>
			<point x="39" y="-225"/>
			<point x="20" y="-202"/>
		</contour>
	</outline>
</glyph>
<glyph name="Hbar" format="2">
	<unicode hex="0126"/>
	<advance width="669"/>
	<outline>
		<contour>
			<point x="113" y="494" type="curve"/>
			<point x="137" y="494"/>
			<point x="640" y="494"/>
			<point x="652" y="494" type="curve" smooth="yes"/>
			<point x="655" y="494"/>
			<point x="656" y="490"/>
			<point x="655" y="486" type="curve" smooth="yes"/>
			<point x="654" y="481"/>
			<point x="650" y="469"/>
			<point x="645" y="461" type="curve"/>
			<point x="621" y="461"/>
			<point x="116" y="461"/>
			<point x="104" y="461" type="curve" smooth="yes"/>
			<point x="101" y="461"/>
			<point x="102" y="468"/>
			<point x="103" y="472" type="curve" smooth="yes"/>
			<point x="104" y="477"/>
			<point x="106" y="486"/>
		</contour>
		<component base="H" xOffset="1"/>
	</outline>
</glyph>
<glyph name="OE" format="2">
	<unicode hex="0152"/>
	<advance width="865"/>
	<outline>
		<contour>
			<point x="586" y="642" type="curve" smooth="yes"/>
			<point x="671" y="642"/>
			<point x="773" y="648"/>
			<point x="872" y="648" type="curve"/>
			<point x="869" y="599"/>
			<point x="873" y="560"/>
			<point x="873" y="516" type="curve"/>
			<point x="870" y="513"/>
			<point x="862" y="511"/>
			<point x="855" y="511" type="curve" smooth="yes"/>
			<point x="848" y="511"/>
			<point x="845" y="513"/>
			<point x="845" y="518" type="curve" smooth="yes"/>
			<point x="840" y="596"/>
			<point x="807" y="615"/>
			<point x="759" y="615" type="curve" smooth="yes"/>
			<point x="681" y="615" type="line" smooth="yes"/>
			<point x="670" y="615"/>
			<point x="621" y="614"/>
			<point x="616" y="604" type="curve" smooth="yes"/>
			<point x="608" y="588"/>
			<point x="602" y="560"/>
			<point x="597" y="534" type="curve" smooth="yes"/>
			<point x="561" y="347" type="line" smooth="yes"/>
			<point x="560" y="342"/>
			<point x="579" y="341"/>
			<point x="599" y="341" type="curve" smooth="yes"/>
			<point x="646" y="341" type="line" smooth="yes"/>
			<point x="733" y="341"/>
			<point x="732" y="347"/>
			<point x="760" y="411" type="curve" smooth="yes"/>
			<point x="762" y="416"/>
			<point x="768" y="418"/>
			<point x="775" y="418" type="curve" smooth="yes"/>
			<point x="782" y="418"/>
			<point x="787" y="416"/>
			<point x="789" y="413" type="curve"/>
			<point x="754" y="229" type="line"/>
			<point x="752" y="227"/>
			<point x="745" y="225"/>
			<point x="738" y="225" type="curve" smooth="yes"/>
			<point x="731" y="225"/>
			<point x="727" y="227"/>
			<point x="726" y="232" type="curve" smooth="yes"/>
			<point x="723" y="288"/>
			<point x="720" y="295"/>
			<point x="713" y="301" type="curve" smooth="yes"/>
			<point x="704" y="308"/>
			<point x="652" y="309"/>
			<point x="618" y="309" type="curve" smooth="yes"/>
			<point x="593" y="309"/>
			<point x="553" y="309"/>
			<point x="551" y="300" type="curve" smooth="yes"/>
			<point x="513" y="106" type="line" smooth="yes"/>
			<point x="510" y="91"/>
			<point x="501" y="44"/>
			<point x="506" y="39" type="curve" smooth="yes"/>
			<point x="516" y="29"/>
			<point x="530" y="29"/>
			<point x="568" y="29" type="curve" smooth="yes"/>
			<point x="611" y="29" type="line" smooth="yes"/>
			<point x="661" y="29"/>
			<point x="701" y="39"/>
			<point x="732" y="60" type="curve" smooth="yes"/>
			<point x="758" y="78"/>
			<point x="785" y="106"/>
			<point x="809" y="158" type="curve" smooth="yes"/>
			<point x="811" y="162"/>
			<point x="816" y="164"/>
			<point x="823" y="164" type="curve" smooth="yes"/>
			<point x="832" y="164"/>
			<point x="843" y="161"/>
			<point x="845" y="158" type="curve"/>
			<point x="818" y="105"/>
			<point x="779" y="39"/>
			<point x="764" y="-4" type="curve"/>
			<point x="665" y="-4"/>
			<point x="575" y="2"/>
			<point x="455" y="0" type="curve" smooth="yes"/>
			<point x="401" y="-1"/>
			<point x="350" y="-11"/>
			<point x="317" y="-11" type="curve" smooth="yes"/>
			<point x="138" y="-11"/>
			<point x="56" y="121"/>
			<point x="56" y="268" type="curve" smooth="yes"/>
			<point x="56" y="478"/>
			<point x="209" y="650"/>
			<point x="403" y="650" type="curve" smooth="yes"/>
			<point x="474" y="650"/>
			<point x="524" y="641"/>
		</contour>
		<contour>
			<point x="518" y="544" type="line" smooth="yes"/>
			<point x="530" y="606"/>
			<point x="449" y="621"/>
			<point x="395" y="621" type="curve" smooth="yes"/>
			<point x="248" y="621"/>
			<point x="147" y="434"/>
			<point x="147" y="266" type="curve" smooth="yes"/>
			<point x="147" y="107"/>
			<point x="207" y="18"/>
			<point x="317" y="18" type="curve" smooth="yes"/>
			<point x="389" y="18"/>
			<point x="414" y="50"/>
			<point x="419" y="61" type="curve" smooth="yes"/>
			<point x="427" y="77"/>
			<point x="431" y="84"/>
			<point x="437" y="113" type="curve" smooth="yes"/>
		</contour>
	</outline>
</glyph>
<glyph name="Tbar" format="2">
	<unicode hex="0166"/>
	<advance width="574"/>
	<outline>
		<contour>
			<point x="149" y="340" type="curve"/>
			<point x="175" y="340"/>
			<point x="449" y="340"/>
			<point x="462" y="340" type="curve" smooth="yes"/>
			<point x="466" y="340"/>
			<point x="467" y="335"/>
			<point x="466" y="330" type="curve" smooth="yes"/>
			<point x="465" y="324"/>
			<point x="459" y="310"/>
			<point x="454" y="301" type="curve"/>
			<point x="428" y="301"/>
			<point x="155" y="301"/>
			<point x="142" y="301" type="curve" smooth="yes"/>
			<point x="138" y="301"/>
			<point x="138" y="308"/>
			<point x="139" y="313" type="curve" smooth="yes"/>
			<point x="140" y="319"/>
			<point x="142" y="331"/>
		</contour>
		<component base="T" xOffset="1"/>
	</outline>
</glyph>
<glyph name="uogonek" format="2">
	<unicode hex="0173"/>
	<advance width="478"/>
	<outline>
		<contour>
			<point x="194" y="-176" type="curve" smooth="yes"/>
			<point x="194" y="-126"/>
			<point x="254" y="-50"/>
			<point x="300" y="-4" type="curve"/>
			<point x="285" y="2"/>
			<point x="277" y="22"/>
			<point x="277" y="45" type="curve" smooth="yes"/>
			<point x="278" y="53"/>
			<point x="281" y="76"/>
			<point x="285" y="97" type="curve" smooth="yes"/>
			<point x="291" y="130"/>
			<point x="296" y="149"/>
			<point x="303" y="182" type="curve"/>
			<point x="278" y="127"/>
			<point x="170" y="-6"/>
			<point x="106" y="-6" type="curve" smooth="yes"/>
			<point x="68" y="-6"/>
			<point x="58" y="27"/>
			<point x="58" y="64" type="curve" smooth="yes"/>
			<point x="58" y="91"/>
			<point x="65" y="137"/>
			<point x="71" y="165" type="curve" smooth="yes"/>
			<point x="104" y="315" type="line" smooth="yes"/>
			<point x="105" y="321"/>
			<point x="107" y="342"/>
			<point x="107" y="347" type="curve" smooth="yes"/>
			<point x="107" y="356"/>
			<point x="108" y="371"/>
			<point x="98" y="371" type="curve" smooth="yes"/>
			<point x="77" y="371"/>
			<point x="32" y="317"/>
			<point x="29" y="314" type="curve"/>
			<point x="26" y="314"/>
			<point x="20" y="327"/>
			<point x="20" y="333" type="curve"/>
			<point x="31" y="352"/>
			<point x="97" y="425"/>
			<point x="143" y="425" type="curve" smooth="yes"/>
			<point x="164" y="425"/>
			<point x="181" y="403"/>
			<point x="181" y="374" type="curve" smooth="yes"/>
			<point x="181" y="366"/>
			<point x="178" y="343"/>
			<point x="174" y="322" type="curve" smooth="yes"/>
			<point x="140" y="161" type="line" smooth="yes"/>
			<point x="138" y="152"/>
			<point x="133" y="119"/>
			<point x="133" y="108" type="curve" smooth="yes"/>
			<point x="133" y="86"/>
			<point x="134" y="66"/>
			<point x="151" y="66" type="curve" smooth="yes"/>
			<point x="186" y="66"/>
			<point x="303" y="190"/>
			<point x="326" y="312" type="curve" smooth="yes"/>
			<point x="334" y="354"/>
			<point x="339" y="377"/>
			<point x="348" y="419" type="curve"/>
			<point x="358" y="422"/>
			<point x="368" y="423"/>
			<point x="378" y="423" type="curve" smooth="yes"/>
			<point x="388" y="423"/>
			<point x="404" y="422"/>
			<point x="416" y="419" type="curve"/>
			<point x="355" y="104" type="line" smooth="yes"/>
			<point x="353" y="94"/>
			<point x="352" y="77"/>
			<point x="351" y="72" type="curve" smooth="yes"/>
			<point x="351" y="63"/>
			<point x="350" y="48"/>
			<point x="360" y="48" type="curve" smooth="yes"/>
			<point x="381" y="48"/>
			<point x="426" y="101"/>
			<point x="429" y="104" type="curve"/>
			<point x="432" y="104"/>
			<point x="438" y="92"/>
			<point x="438" y="86" type="curve"/>
			<point x="432" y="75"/>
			<point x="403" y="45"/>
			<point x="377" y="24" type="curve" smooth="yes"/>
			<point x="341" y="-5"/>
			<point x="247" y="-86"/>
			<point x="247" y="-136" type="curve" smooth="yes"/>
			<point x="247" y="-151"/>
			<point x="253" y="-167"/>
			<point x="277" y="-167" type="curve" smooth="yes"/>
			<point x="323" y="-167"/>
			<point x="352" y="-130"/>
			<point x="358" y="-130" type="curve" smooth="yes"/>
			<point x="366" y="-130"/>
			<point x="356" y="-156"/>
			<point x="353" y="-159" type="curve" smooth="yes"/>
			<point x="328" y="-187"/>
			<point x="285" y="-225"/>
			<point x="244" y="-225" type="curve" smooth="yes"/>
			<point x="215" y="-225"/>
			<point x="194" y="-202"/>
		</contour>
	</outline>
</glyph>
<glyph name="gravecomb" format="2">
	<unicode hex="0300"/>
	<outline>
		<contour>
			<point x="-188" y="479" type="curve" smooth="yes"/>
			<point x="-203" y="479"/>
			<point x="-347" y="558"/>
			<point x="-347" y="577" type="curve" smooth="yes"/>
			<point x="-347" y="599"/>
			<point x="-322" y="606"/>
			<point x="-309" y="606" type="curve" smooth="yes"/>
			<point x="-294" y="606"/>
			<point x="-282" y="604"/>
			<point x="-272" y="597" type="curve" smooth="yes"/>
			<point x="-259" y="588"/>
			<point x="-180" y="496"/>
			<point x="-180" y="488" type="curve" smooth="yes"/>
			<point x="-180" y="485"/>
			<point x="-185" y="479"/>
		</contour>
	</outline>
</glyph>
<glyph name="figuredash" format="2">
	<unicode hex="2012"/>
	<advance width="503"/>
	<outline>
		<contour>
			<point x="434" y="256" type="line" smooth="yes"/>
			<point x="438" y="256"/>
			<point x="439" y="250"/>
			<point x="439" y="243" type="curve" smooth="yes"/>
			<point x="439" y="229"/>
			<point x="430" y="202"/>
			<point x="418" y="195" type="curve"/>
			<point x="57" y="195" type="line" smooth="yes"/>
			<point x="53" y="195"/>
			<point x="51" y="201"/>
			<point x="51" y="208" type="curve" smooth="yes"/>
			<point x="51" y="222"/>
			<point x="60" y="249"/>
			<point x="72" y="256" type="curve"/>
		</contour>
	</outline>
</glyph>
<glyph name="endash" format="2">
	<unicode hex="2013"/>
	<advance width="550"/>
	<outline>
		<contour>
			<point x="479" y="256" type="line" smooth="yes"/>
			<point x="483" y="256"/>
			<point x="485" y="250"/>
			<point x="485" y="243" type="curve" smooth="yes"/>
			<point x="485" y="229"/>
			<point x="476" y="202"/>
			<point x="464" y="195" type="curve"/>
			<point x="58" y="195" type="line" smooth="yes"/>
			<point x="54" y="195"/>
			<point x="52" y="201"/>
			<point x="52" y="208" type="curve" smooth="yes"/>
			<point x="52" y="222"/>
			<point x="61" y="249"/>
			<point x="73" y="256" type="curve"/>
		</contour>
	</outline>
</glyph>
<glyph name="emdash" format="2">
	<unicode hex="2014"/>
	<advance width="781"/>
	<outline>
		<contour>
			<point x="710" y="256" type="line" smooth="yes"/>
			<point x="714" y="256"/>
			<point x="716" y="250"/>
			<point x="716" y="243" type="curve" smooth="yes"/>
			<point x="716" y="229"/>
			<point x="706" y="202"/>
			<point x="694" y="195" type="curve"/>
			<point x="58" y="195" type="line" smooth="yes"/>
			<point x="54" y="195"/>
			<point x="52" y="201"/>
			<point x="52" y="208" type="curve" smooth="yes"/>
			<point x="52" y="222"/>
			<point x="61" y="249"/>
			<point x="73" y="256" type="curve"/>
		</contour>
	</outline>
</glyph>
<glyph name="dagger" format="2">
	<unicode hex="2020"/>
	<advance width="389"/>
	<outline>
		<contour>
			<point x="150" y="475" type="curve" smooth="yes"/>
			<point x="164" y="475"/>
			<point x="171" y="480"/>
			<point x="181" y="493" type="curve"/>
			<point x="181" y="525"/>
			<point x="173" y="591"/>
			<point x="154" y="610" type="curve"/>
			<point x="154" y="631"/>
			<point x="173" y="646"/>
			<point x="195" y="646" type="curve" smooth="yes"/>
			<point x="216" y="646"/>
			<point x="234" y="631"/>
			<point x="234" y="610" type="curve"/>
			<point x="215" y="591"/>
			<point x="208" y="525"/>
			<point x="208" y="493" type="curve"/>
			<point x="218" y="480"/>
			<point x="226" y="475"/>
			<point x="239" y="475" type="curve" smooth="yes"/>
			<point x="271" y="475"/>
			<point x="299" y="487"/>
			<point x="318" y="506" type="curve"/>
			<point x="339" y="506"/>
			<point x="355" y="486"/>
			<point x="355" y="465" type="curve" smooth="yes"/>
			<point x="355" y="444"/>
			<point x="339" y="427"/>
			<point x="318" y="427" type="curve"/>
			<point x="299" y="446"/>
			<point x="271" y="454"/>
			<point x="239" y="454" type="curve" smooth="yes"/>
			<point x="223" y="454"/>
			<point x="210" y="439"/>
			<point x="210" y="427" type="curve"/>
			<point x="217" y="410"/>
			<point x="227" y="384"/>
			<point x="239" y="356" type="curve"/>
			<point x="218" y="221"/>
			<point x="213" y="167"/>
			<point x="200" y="4" type="curve"/>
			<point x="198" y="-2"/>
			<point x="197" y="-7"/>
			<point x="194" y="-8" type="curve"/>
			<point x="191" y="-7"/>
			<point x="190" y="0"/>
			<point x="188" y="4" type="curve"/>
			<point x="175" y="167"/>
			<point x="170" y="221"/>
			<point x="149" y="356" type="curve"/>
			<point x="160" y="380"/>
			<point x="172" y="410"/>
			<point x="179" y="427" type="curve"/>
			<point x="179" y="439"/>
			<point x="166" y="454"/>
			<point x="150" y="454" type="curve" smooth="yes"/>
			<point x="118" y="454"/>
			<point x="90" y="446"/>
			<point x="71" y="427" type="curve"/>
			<point x="50" y="427"/>
			<point x="34" y="444"/>
			<point x="34" y="465" type="curve" smooth="yes"/>
			<point x="34" y="486"/>
			<point x="50" y="506"/>
			<point x="71" y="506" type="curve"/>
			<point x="90" y="487"/>
			<point x="118" y="475"/>
		</contour>
	</outline>
</glyph>
<glyph name="backslash.latn" format="2">
	<advance width="391"/>
	<outline>
		<contour>
			<point x="30" y="732" type="curve"/>
			<point x="33" y="737"/>
			<point x="43" y="739"/>
			<point x="50" y="739" type="curve" smooth="yes"/>
			<point x="61" y="739"/>
			<point x="74" y="732"/>
			<point x="77" y="724" type="curve" smooth="yes"/>
			<point x="77" y="724"/>
			<point x="360" y="-11"/>
			<point x="360" y="-17" type="curve"/>
			<point x="359" y="-21"/>
			<point x="350" y="-27"/>
			<point x="338" y="-27" type="curve" smooth="yes"/>
			<point x="331" y="-27"/>
			<point x="320" y="-21"/>
			<point x="317" y="-14" type="curve" smooth="yes"/>
			<point x="209" y="268"/>
			<point x="116" y="511"/>
		</contour>
	</outline>
</glyph>
<glyph name="braceleft.latn" format="2">
	<advance width="216"/>
	<outline>
		<contour>
			<point x="102" y="374" type="curve" smooth="yes"/>
			<point x="102" y="399"/>
			<point x="90" y="423"/>
			<point x="79" y="447" type="curve" smooth="yes"/>
			<point x="67" y="472"/>
			<point x="57" y="498"/>
			<point x="57" y="528" type="curve" smooth="yes"/>
			<point x="57" y="623"/>
			<point x="119" y="686"/>
			<point x="161" y="703" type="curve"/>
			<point x="169" y="703"/>
			<point x="177" y="694"/>
			<point x="177" y="685" type="curve"/>
			<point x="151" y="672"/>
			<point x="100" y="625"/>
			<point x="100" y="575" type="curve" smooth="yes"/>
			<point x="100" y="538"/>
			<point x="112" y="513"/>
			<point x="124" y="486" type="curve" smooth="yes"/>
			<point x="136" y="462"/>
			<point x="147" y="435"/>
			<point x="147" y="396" type="curve" smooth="yes"/>
			<point x="147" y="333"/>
			<point x="100" y="291"/>
			<point x="75" y="281" type="curve"/>
			<point x="100" y="271"/>
			<point x="147" y="230"/>
			<point x="147" y="167" type="curve" smooth="yes"/>
			<point x="147" y="128"/>
			<point x="136" y="100"/>
			<point x="124" y="76" type="curve" smooth="yes"/>
			<point x="112" y="49"/>
			<point x="100" y="24"/>
			<point x="100" y="-13" type="curve" smooth="yes"/>
			<point x="100" y="-63"/>
			<point x="151" y="-109"/>
			<point x="177" y="-122" type="curve"/>
			<point x="177" y="-131"/>
			<point x="169" y="-141"/>
			<point x="161" y="-141" type="curve"/>
			<point x="119" y="-124"/>
			<point x="57" y="-61"/>
			<point x="57" y="34" type="curve" smooth="yes"/>
			<point x="57" y="64"/>
			<point x="67" y="90"/>
			<point x="79" y="115" type="curve" smooth="yes"/>
			<point x="90" y="139"/>
			<point x="102" y="163"/>
			<point x="102" y="188" type="curve" smooth="yes"/>
			<point x="102" y="240"/>
			<point x="66" y="261"/>
			<point x="28" y="271" type="curve"/>
			<point x="27" y="273"/>
			<point x="25" y="277"/>
			<point x="25" y="281" type="curve" smooth="yes"/>
			<point x="25" y="285"/>
			<point x="27" y="290"/>
			<point x="28" y="292" type="curve"/>
			<point x="66" y="302"/>
			<point x="102" y="322"/>
		</contour>
	</outline>
</glyph>
<glyph name="f_b" format="2">
	<advance width="706"/>
	<outline>
		<contour>
			<point x="549" y="371" type="curve" smooth="yes"/>
			<point x="507" y="371"/>
			<point x="417" y="259"/>
			<point x="396" y="152" type="curve" smooth="yes"/>
			<point x="380" y="73"/>
			<point x="394" y="26"/>
			<point x="440" y="26" type="curve" smooth="yes"/>
			<point x="522" y="26"/>
			<point x="587" y="216"/>
			<point x="587" y="295" type="curve" smooth="yes"/>
			<point x="587" y="331"/>
			<point x="583" y="371"/>
		</contour>
		<contour>
			<point x="405" y="546" type="line" smooth="yes"/>
			<point x="406" y="551"/>
			<point x="410" y="571"/>
			<point x="410" y="575" type="curve" smooth="yes"/>
			<point x="410" y="617"/>
			<point x="367" y="646"/>
			<point x="321" y="646" type="curve" smooth="yes"/>
			<point x="257" y="646"/>
			<point x="210" y="565"/>
			<point x="183" y="403" type="curve" smooth="yes"/>
			<point x="183" y="401" type="line" smooth="yes"/>
			<point x="183" y="399"/>
			<point x="185" y="397"/>
			<point x="186" y="397" type="curve" smooth="yes"/>
			<point x="298" y="397" type="line" smooth="yes"/>
			<point x="302" y="397"/>
			<point x="303" y="391"/>
			<point x="303" y="386" type="curve" smooth="yes"/>
			<point x="303" y="372"/>
			<point x="297" y="361"/>
			<point x="292" y="353" type="curve"/>
			<point x="178" y="353" type="line" smooth="yes"/>
			<point x="176" y="353"/>
			<point x="173" y="353"/>
			<point x="172" y="345" type="curve" smooth="yes"/>
			<point x="118" y="53" type="line" smooth="yes"/>
			<point x="85" y="-138"/>
			<point x="-8" y="-226"/>
			<point x="-93" y="-226" type="curve" smooth="yes"/>
			<point x="-143" y="-226"/>
			<point x="-166" y="-203"/>
			<point x="-172" y="-186" type="curve"/>
			<point x="-173" y="-157"/>
			<point x="-155" y="-128"/>
			<point x="-132" y="-128" type="curve" smooth="yes"/>
			<point x="-106" y="-128"/>
			<point x="-101" y="-188"/>
			<point x="-60" y="-188" type="curve" smooth="yes"/>
			<point x="-6" y="-188"/>
			<point x="35" y="-41"/>
			<point x="45" y="15" type="curve" smooth="yes"/>
			<point x="104" y="346" type="line"/>
			<point x="104" y="348" type="line" smooth="yes"/>
			<point x="104" y="351"/>
			<point x="103" y="353"/>
			<point x="101" y="353" type="curve" smooth="yes"/>
			<point x="37" y="353" type="line" smooth="yes"/>
			<point x="36" y="353"/>
			<point x="35" y="353"/>
			<point x="35" y="355" type="curve" smooth="yes"/>
			<point x="35" y="365"/>
			<point x="60" y="397"/>
			<point x="82" y="397" type="curve" smooth="yes"/>
			<point x="110" y="397" type="line" smooth="yes"/>
			<point x="113" y="397"/>
			<point x="115" y="402"/>
			<point x="116" y="406" type="curve" smooth="yes"/>
			<point x="142" y="568"/>
			<point x="241" y="683"/>
			<point x="339" y="683" type="curve" smooth="yes"/>
			<point x="392" y="683"/>
			<point x="420" y="662"/>
			<point x="432" y="662" type="curve" smooth="yes"/>
			<point x="453" y="662"/>
			<point x="493" y="678"/>
			<point x="503" y="678" type="curve"/>
			<point x="508" y="678"/>
			<point x="508" y="666"/>
			<point x="508" y="662" type="curve"/>
			<point x="508" y="662"/>
			<point x="491" y="630"/>
			<point x="480" y="577" type="curve" smooth="yes"/>
			<point x="420" y="278" type="line"/>
			<point x="488" y="392"/>
			<point x="560" y="425"/>
			<point x="591" y="425" type="curve" smooth="yes"/>
			<point x="636" y="425"/>
			<point x="659" y="381"/>
			<point x="659" y="314" type="curve" smooth="yes"/>
			<point x="659" y="138"/>
			<point x="517" y="-6"/>
			<point x="413" y="-6" type="curve" smooth="yes"/>
			<point x="358" y="-6"/>
			<point x="322" y="36"/>
			<point x="322" y="108" type="curve" smooth="yes"/>
			<point x="322" y="118"/>
			<point x="326" y="142"/>
			<point x="328" y="154" type="curve" smooth="yes"/>
		</contour>
	</outline>
	<anchor name="caret_1" x="207" y="0"/>
</glyph>
<glyph name="f_f_k" format="2">
	<advance width="980"/>
	<outline>
		<contour>
			<point x="817" y="379" type="curve" smooth="yes"/>
			<point x="760" y="379"/>
			<point x="682" y="285"/>
			<point x="670" y="225" type="curve"/>
			<point x="735" y="225"/>
			<point x="850" y="265"/>
			<point x="850" y="346" type="curve" smooth="yes"/>
			<point x="850" y="364"/>
			<point x="844" y="379"/>
		</contour>
		<contour>
			<point x="687" y="662" type="curve" smooth="yes"/>
			<point x="708" y="662"/>
			<point x="753" y="678"/>
			<point x="763" y="678" type="curve"/>
			<point x="768" y="678"/>
			<point x="768" y="666"/>
			<point x="768" y="662" type="curve"/>
			<point x="768" y="662"/>
			<point x="749" y="631"/>
			<point x="738" y="577" type="curve" smooth="yes"/>
			<point x="688" y="314" type="line"/>
			<point x="693" y="318"/>
			<point x="769" y="425"/>
			<point x="853" y="425" type="curve" smooth="yes"/>
			<point x="891" y="425"/>
			<point x="926" y="396"/>
			<point x="926" y="358" type="curve" smooth="yes"/>
			<point x="926" y="269"/>
			<point x="828" y="225"/>
			<point x="720" y="206" type="curve"/>
			<point x="806" y="77"/>
			<point x="833" y="50"/>
			<point x="873" y="50" type="curve" smooth="yes"/>
			<point x="890" y="50"/>
			<point x="928" y="90"/>
			<point x="939" y="104" type="curve"/>
			<point x="942" y="104"/>
			<point x="949" y="91"/>
			<point x="949" y="86" type="curve"/>
			<point x="941" y="72"/>
			<point x="873" y="-4"/>
			<point x="830" y="-4" type="curve" smooth="yes"/>
			<point x="753" y="-4"/>
			<point x="704" y="117"/>
			<point x="662" y="187" type="curve"/>
			<point x="626" y="0" type="line"/>
			<point x="615" y="-3"/>
			<point x="603" y="-5"/>
			<point x="592" y="-5" type="curve" smooth="yes"/>
			<point x="581" y="-5"/>
			<point x="569" y="-3"/>
			<point x="557" y="0" type="curve"/>
			<point x="663" y="546" type="line" smooth="yes"/>
			<point x="664" y="551"/>
			<point x="667" y="571"/>
			<point x="667" y="575" type="curve" smooth="yes"/>
			<point x="667" y="617"/>
			<point x="622" y="646"/>
			<point x="576" y="646" type="curve" smooth="yes"/>
			<point x="512" y="646"/>
			<point x="465" y="565"/>
			<point x="438" y="403" type="curve" smooth="yes"/>
			<point x="438" y="401" type="line" smooth="yes"/>
			<point x="438" y="399"/>
			<point x="439" y="397"/>
			<point x="440" y="397" type="curve" smooth="yes"/>
			<point x="553" y="397" type="line" smooth="yes"/>
			<point x="557" y="397"/>
			<point x="558" y="391"/>
			<point x="558" y="386" type="curve" smooth="yes"/>
			<point x="558" y="372"/>
			<point x="552" y="361"/>
			<point x="547" y="353" type="curve"/>
			<point x="433" y="353" type="line" smooth="yes"/>
			<point x="431" y="353"/>
			<point x="429" y="353"/>
			<point x="427" y="345" type="curve" smooth="yes"/>
			<point x="380" y="104" type="line" smooth="yes"/>
			<point x="334" y="-136"/>
			<point x="185" y="-219"/>
			<point x="122" y="-219" type="curve" smooth="yes"/>
			<point x="69" y="-219"/>
			<point x="38" y="-185"/>
			<point x="28" y="-171" type="curve"/>
			<point x="-6" y="-210"/>
			<point x="-52" y="-228"/>
			<point x="-91" y="-228" type="curve" smooth="yes"/>
			<point x="-144" y="-228"/>
			<point x="-164" y="-202"/>
			<point x="-172" y="-187" type="curve"/>
			<point x="-172" y="-163"/>
			<point x="-161" y="-128"/>
			<point x="-133" y="-128" type="curve" smooth="yes"/>
			<point x="-101" y="-128"/>
			<point x="-104" y="-188"/>
			<point x="-62" y="-188" type="curve" smooth="yes"/>
			<point x="-18" y="-188"/>
			<point x="32" y="-72"/>
			<point x="43" y="-10" type="curve" smooth="yes"/>
			<point x="47" y="11"/>
			<point x="48" y="21"/>
			<point x="52" y="45" type="curve" smooth="yes"/>
			<point x="104" y="346" type="line"/>
			<point x="104" y="348" type="line" smooth="yes"/>
			<point x="104" y="351"/>
			<point x="103" y="353"/>
			<point x="101" y="353" type="curve" smooth="yes"/>
			<point x="37" y="353" type="line" smooth="yes"/>
			<point x="36" y="353"/>
			<point x="35" y="353"/>
			<point x="35" y="355" type="curve" smooth="yes"/>
			<point x="35" y="365"/>
			<point x="60" y="397"/>
			<point x="82" y="397" type="curve" smooth="yes"/>
			<point x="110" y="397" type="line" smooth="yes"/>
			<point x="113" y="397"/>
			<point x="115" y="402"/>
			<point x="116" y="406" type="curve" smooth="yes"/>
			<point x="147" y="566"/>
			<point x="270" y="667"/>
			<point x="362" y="667" type="curve" smooth="yes"/>
			<point x="415" y="667"/>
			<point x="456" y="651"/>
			<point x="470" y="638" type="curve"/>
			<point x="493" y="660"/>
			<point x="556" y="683"/>
			<point x="594" y="683" type="curve" smooth="yes"/>
			<point x="647" y="683"/>
			<point x="675" y="662"/>
		</contour>
		<contour>
			<point x="133" y="-173" type="curve" smooth="yes"/>
			<point x="190" y="-173"/>
			<point x="271" y="-99"/>
			<point x="304" y="59" type="curve" smooth="yes"/>
			<point x="354" y="346" type="line"/>
			<point x="354" y="348" type="line" smooth="yes"/>
			<point x="354" y="351"/>
			<point x="353" y="353"/>
			<point x="351" y="353" type="curve"/>
			<point x="178" y="353" type="line" smooth="yes"/>
			<point x="175" y="353"/>
			<point x="173" y="353"/>
			<point x="172" y="345" type="curve" smooth="yes"/>
			<point x="118" y="42" type="line" smooth="yes"/>
			<point x="106" y="-19"/>
			<point x="95" y="-58"/>
			<point x="74" y="-101" type="curve" smooth="yes"/>
			<point x="73" y="-102"/>
			<point x="73" y="-103"/>
			<point x="73" y="-105" type="curve" smooth="yes"/>
			<point x="73" y="-108"/>
			<point x="74" y="-112"/>
			<point x="74" y="-113" type="curve" smooth="yes"/>
			<point x="78" y="-133"/>
			<point x="91" y="-173"/>
		</contour>
		<contour>
			<point x="342" y="630" type="curve" smooth="yes"/>
			<point x="267" y="630"/>
			<point x="210" y="547"/>
			<point x="189" y="443" type="curve" smooth="yes"/>
			<point x="185" y="422"/>
			<point x="187" y="427"/>
			<point x="183" y="403" type="curve" smooth="yes"/>
			<point x="183" y="401" type="line" smooth="yes"/>
			<point x="183" y="399"/>
			<point x="184" y="397"/>
			<point x="187" y="397" type="curve" smooth="yes"/>
			<point x="360" y="397" type="line" smooth="yes"/>
			<point x="363" y="397"/>
			<point x="365" y="402"/>
			<point x="366" y="406" type="curve" smooth="yes"/>
			<point x="378" y="467"/>
			<point x="402" y="538"/>
			<point x="420" y="570" type="curve" smooth="yes"/>
			<point x="421" y="571"/>
			<point x="421" y="573"/>
			<point x="421" y="575" type="curve" smooth="yes"/>
			<point x="421" y="578"/>
			<point x="420" y="582"/>
			<point x="420" y="583" type="curve" smooth="yes"/>
			<point x="416" y="603"/>
			<point x="384" y="630"/>
		</contour>
	</outline>
	<anchor name="caret_1" x="453" y="0"/>
	<anchor name="caret_2" x="201" y="0"/>
</glyph>
<glyph name="f_h" format="2">
	<advance width="734"/>
	<outline>
		<contour>
			<point x="408" y="546" type="line" smooth="yes"/>
			<point x="409" y="551"/>
			<point x="412" y="571"/>
			<point x="412" y="575" type="curve" smooth="yes"/>
			<point x="412" y="617"/>
			<point x="367" y="646"/>
			<point x="321" y="646" type="curve" smooth="yes"/>
			<point x="257" y="646"/>
			<point x="210" y="565"/>
			<point x="183" y="403" type="curve" smooth="yes"/>
			<point x="183" y="401" type="line" smooth="yes"/>
			<point x="183" y="399"/>
			<point x="185" y="397"/>
			<point x="186" y="397" type="curve" smooth="yes"/>
			<point x="298" y="397" type="line" smooth="yes"/>
			<point x="302" y="397"/>
			<point x="303" y="391"/>
			<point x="303" y="386" type="curve" smooth="yes"/>
			<point x="303" y="372"/>
			<point x="297" y="361"/>
			<point x="292" y="353" type="curve"/>
			<point x="178" y="353" type="line" smooth="yes"/>
			<point x="176" y="353"/>
			<point x="173" y="353"/>
			<point x="172" y="345" type="curve" smooth="yes"/>
			<point x="118" y="53" type="line" smooth="yes"/>
			<point x="85" y="-138"/>
			<point x="-8" y="-226"/>
			<point x="-93" y="-226" type="curve" smooth="yes"/>
			<point x="-143" y="-226"/>
			<point x="-166" y="-203"/>
			<point x="-172" y="-186" type="curve"/>
			<point x="-173" y="-157"/>
			<point x="-155" y="-128"/>
			<point x="-132" y="-128" type="curve" smooth="yes"/>
			<point x="-106" y="-128"/>
			<point x="-101" y="-188"/>
			<point x="-60" y="-188" type="curve" smooth="yes"/>
			<point x="-6" y="-188"/>
			<point x="35" y="-41"/>
			<point x="45" y="15" type="curve" smooth="yes"/>
			<point x="104" y="346" type="line"/>
			<point x="104" y="348" type="line" smooth="yes"/>
			<point x="104" y="351"/>
			<point x="103" y="353"/>
			<point x="101" y="353" type="curve" smooth="yes"/>
			<point x="37" y="353" type="line" smooth="yes"/>
			<point x="36" y="353"/>
			<point x="35" y="353"/>
			<point x="35" y="355" type="curve" smooth="yes"/>
			<point x="35" y="365"/>
			<point x="60" y="397"/>
			<point x="82" y="397" type="curve" smooth="yes"/>
			<point x="110" y="397" type="line" smooth="yes"/>
			<point x="113" y="397"/>
			<point x="115" y="402"/>
			<point x="116" y="406" type="curve" smooth="yes"/>
			<point x="142" y="568"/>
			<point x="241" y="683"/>
			<point x="339" y="683" type="curve" smooth="yes"/>
			<point x="392" y="683"/>
			<point x="420" y="662"/>
			<point x="432" y="662" type="curve" smooth="yes"/>
			<point x="453" y="662"/>
			<point x="499" y="678"/>
			<point x="509" y="678" type="curve"/>
			<point x="514" y="678"/>
			<point x="514" y="666"/>
			<point x="514" y="662" type="curve"/>
			<point x="514" y="662"/>
			<point x="494" y="631"/>
			<point x="483" y="577" type="curve" smooth="yes"/>
			<point x="434" y="322" type="line"/>
			<point x="416" y="232" type="line"/>
			<point x="429" y="256"/>
			<point x="546" y="425"/>
			<point x="610" y="425" type="curve" smooth="yes"/>
			<point x="648" y="425"/>
			<point x="664" y="397"/>
			<point x="664" y="360" type="curve" smooth="yes"/>
			<point x="664" y="327"/>
			<point x="658" y="291"/>
			<point x="650" y="254" type="curve" smooth="yes"/>
			<point x="618" y="104" type="line" smooth="yes"/>
			<point x="617" y="100"/>
			<point x="614" y="77"/>
			<point x="614" y="72" type="curve" smooth="yes"/>
			<point x="614" y="63"/>
			<point x="614" y="48"/>
			<point x="624" y="48" type="curve" smooth="yes"/>
			<point x="645" y="48"/>
			<point x="689" y="101"/>
			<point x="692" y="104" type="curve"/>
			<point x="695" y="104"/>
			<point x="702" y="92"/>
			<point x="702" y="86" type="curve"/>
			<point x="691" y="67"/>
			<point x="620" y="-6"/>
			<point x="574" y="-6" type="curve" smooth="yes"/>
			<point x="553" y="-6"/>
			<point x="541" y="16"/>
			<point x="541" y="45" type="curve" smooth="yes"/>
			<point x="541" y="53"/>
			<point x="543" y="76"/>
			<point x="548" y="97" type="curve" smooth="yes"/>
			<point x="582" y="258" type="line" smooth="yes"/>
			<point x="584" y="267"/>
			<point x="589" y="300"/>
			<point x="589" y="311" type="curve" smooth="yes"/>
			<point x="589" y="333"/>
			<point x="587" y="353"/>
			<point x="570" y="353" type="curve" smooth="yes"/>
			<point x="535" y="353"/>
			<point x="418" y="230"/>
			<point x="396" y="116" type="curve" smooth="yes"/>
			<point x="390" y="86"/>
			<point x="381" y="45"/>
			<point x="371" y="0" type="curve"/>
			<point x="361" y="-3"/>
			<point x="346" y="-4"/>
			<point x="336" y="-4" type="curve" smooth="yes"/>
			<point x="326" y="-4"/>
			<point x="315" y="-3"/>
			<point x="303" y="0" type="curve"/>
		</contour>
	</outline>
	<anchor name="caret_1" x="206" y="0"/>
</glyph>
<glyph name="f_i" format="2">
	<advance width="507"/>
	<outline>
		<contour>
			<point x="421" y="322" type="curve" smooth="yes"/>
			<point x="371" y="104" type="line" smooth="yes"/>
			<point x="369" y="94"/>
			<point x="367" y="77"/>
			<point x="367" y="72" type="curve" smooth="yes"/>
			<point x="367" y="63"/>
			<point x="367" y="48"/>
			<point x="377" y="48" type="curve" smooth="yes"/>
			<point x="398" y="48"/>
			<point x="442" y="101"/>
			<point x="445" y="104" type="curve"/>
			<point x="448" y="104"/>
			<point x="455" y="92"/>
			<point x="455" y="86" type="curve"/>
			<point x="444" y="67"/>
			<point x="373" y="-6"/>
			<point x="327" y="-6" type="curve" smooth="yes"/>
			<point x="306" y="-6"/>
			<point x="294" y="16"/>
			<point x="294" y="45" type="curve" smooth="yes"/>
			<point x="294" y="53"/>
			<point x="296" y="76"/>
			<point x="301" y="97" type="curve" smooth="yes"/>
			<point x="344" y="286" type="line" smooth="yes"/>
			<point x="345" y="293"/>
			<point x="347" y="308"/>
			<point x="347" y="313" type="curve" smooth="yes"/>
			<point x="347" y="334"/>
			<point x="340" y="357"/>
			<point x="321" y="357" type="curve" smooth="yes"/>
			<point x="265" y="357"/>
			<point x="178" y="353"/>
			<point x="178" y="353" type="curve" smooth="yes"/>
			<point x="175" y="353"/>
			<point x="173" y="353"/>
			<point x="172" y="345" type="curve" smooth="yes"/>
			<point x="118" y="53" type="line" smooth="yes"/>
			<point x="85" y="-138"/>
			<point x="-8" y="-226"/>
			<point x="-93" y="-226" type="curve" smooth="yes"/>
			<point x="-143" y="-226"/>
			<point x="-166" y="-203"/>
			<point x="-172" y="-186" type="curve"/>
			<point x="-173" y="-157"/>
			<point x="-155" y="-128"/>
			<point x="-132" y="-128" type="curve" smooth="yes"/>
			<point x="-106" y="-128"/>
			<point x="-101" y="-188"/>
			<point x="-60" y="-188" type="curve" smooth="yes"/>
			<point x="-6" y="-188"/>
			<point x="35" y="-41"/>
			<point x="45" y="15" type="curve" smooth="yes"/>
			<point x="104" y="346" type="line"/>
			<point x="104" y="348" type="line" smooth="yes"/>
			<point x="104" y="351"/>
			<point x="103" y="353"/>
			<point x="101" y="353" type="curve" smooth="yes"/>
			<point x="37" y="353" type="line" smooth="yes"/>
			<point x="36" y="353"/>
			<point x="35" y="353"/>
			<point x="35" y="355" type="curve" smooth="yes"/>
			<point x="35" y="365"/>
			<point x="60" y="397"/>
			<point x="82" y="397" type="curve" smooth="yes"/>
			<point x="110" y="397" type="line" smooth="yes"/>
			<point x="113" y="397"/>
			<point x="115" y="402"/>
			<point x="116" y="406" type="curve" smooth="yes"/>
			<point x="142" y="568"/>
			<point x="241" y="683"/>
			<point x="339" y="683" type="curve" smooth="yes"/>
			<point x="392" y="683"/>
			<point x="408" y="670"/>
			<point x="423" y="656" type="curve" smooth="yes"/>
			<point x="439" y="641"/>
			<point x="448" y="629"/>
			<point x="454" y="615" type="curve"/>
			<point x="454" y="588"/>
			<point x="440" y="553"/>
			<point x="410" y="553" type="curve" smooth="yes"/>
			<point x="389" y="553"/>
			<point x="379" y="570"/>
			<point x="368" y="589" type="curve" smooth="yes"/>
			<point x="354" y="613"/>
			<point x="340" y="646"/>
			<point x="304" y="646" type="curve" smooth="yes"/>
			<point x="269" y="646"/>
			<point x="218" y="577"/>
			<point x="189" y="439" type="curve" smooth="yes"/>
			<point x="187" y="427"/>
			<point x="185" y="416"/>
			<point x="183" y="403" type="curve" smooth="yes"/>
			<point x="183" y="401" type="line" smooth="yes"/>
			<point x="183" y="399"/>
			<point x="184" y="397"/>
			<point x="186" y="397" type="curve" smooth="yes"/>
			<point x="209" y="397"/>
			<point x="305" y="400"/>
			<point x="323" y="402" type="curve" smooth="yes"/>
			<point x="344" y="404"/>
			<point x="413" y="408"/>
			<point x="415" y="408" type="curve" smooth="yes"/>
			<point x="419" y="408"/>
			<point x="429" y="401"/>
			<point x="429" y="392" type="curve" smooth="yes"/>
			<point x="429" y="387"/>
			<point x="426" y="343"/>
		</contour>
	</outline>
	<anchor name="caret_1" x="189" y="0"/>
</glyph>
<glyph name="f_j" format="2">
	<advance width="471"/>
	<outline>
		<contour>
			<point x="420" y="322" type="curve" smooth="yes"/>
			<point x="366" y="44" type="line" smooth="yes"/>
			<point x="359" y="9"/>
			<point x="339" y="-65"/>
			<point x="297" y="-121" type="curve" smooth="yes"/>
			<point x="256" y="-175"/>
			<point x="195" y="-215"/>
			<point x="161" y="-229" type="curve"/>
			<point x="157" y="-226"/>
			<point x="152" y="-217"/>
			<point x="152" y="-210" type="curve"/>
			<point x="217" y="-173"/>
			<point x="270" y="-87"/>
			<point x="291" y="21" type="curve" smooth="yes"/>
			<point x="344" y="286" type="line" smooth="yes"/>
			<point x="346" y="294"/>
			<point x="347" y="308"/>
			<point x="347" y="313" type="curve" smooth="yes"/>
			<point x="347" y="334"/>
			<point x="340" y="357"/>
			<point x="321" y="357" type="curve" smooth="yes"/>
			<point x="265" y="357"/>
			<point x="178" y="353"/>
			<point x="178" y="353" type="curve" smooth="yes"/>
			<point x="175" y="353"/>
			<point x="173" y="353"/>
			<point x="172" y="345" type="curve" smooth="yes"/>
			<point x="118" y="53" type="line" smooth="yes"/>
			<point x="85" y="-138"/>
			<point x="-8" y="-226"/>
			<point x="-93" y="-226" type="curve" smooth="yes"/>
			<point x="-143" y="-226"/>
			<point x="-166" y="-203"/>
			<point x="-172" y="-186" type="curve"/>
			<point x="-173" y="-157"/>
			<point x="-155" y="-128"/>
			<point x="-132" y="-128" type="curve" smooth="yes"/>
			<point x="-106" y="-128"/>
			<point x="-101" y="-188"/>
			<point x="-60" y="-188" type="curve" smooth="yes"/>
			<point x="-6" y="-188"/>
			<point x="35" y="-41"/>
			<point x="45" y="15" type="curve" smooth="yes"/>
			<point x="104" y="346" type="line"/>
			<point x="104" y="348" type="line" smooth="yes"/>
			<point x="104" y="351"/>
			<point x="103" y="353"/>
			<point x="101" y="353" type="curve" smooth="yes"/>
			<point x="37" y="353" type="line" smooth="yes"/>
			<point x="36" y="353"/>
			<point x="35" y="353"/>
			<point x="35" y="355" type="curve" smooth="yes"/>
			<point x="35" y="365"/>
			<point x="60" y="397"/>
			<point x="82" y="397" type="curve" smooth="yes"/>
			<point x="110" y="397" type="line" smooth="yes"/>
			<point x="113" y="397"/>
			<point x="115" y="402"/>
			<point x="116" y="406" type="curve" smooth="yes"/>
			<point x="142" y="568"/>
			<point x="241" y="683"/>
			<point x="339" y="683" type="curve" smooth="yes"/>
			<point x="392" y="683"/>
			<point x="408" y="670"/>
			<point x="423" y="656" type="curve" smooth="yes"/>
			<point x="439" y="641"/>
			<point x="448" y="629"/>
			<point x="454" y="615" type="curve"/>
			<point x="454" y="588"/>
			<point x="440" y="553"/>
			<point x="410" y="553" type="curve" smooth="yes"/>
			<point x="389" y="553"/>
			<point x="379" y="570"/>
			<point x="368" y="589" type="curve" smooth="yes"/>
			<point x="354" y="613"/>
			<point x="340" y="646"/>
			<point x="304" y="646" type="curve" smooth="yes"/>
			<point x="266" y="646"/>
			<point x="210" y="565"/>
			<point x="183" y="403" type="curve" smooth="yes"/>
			<point x="183" y="401" type="line" smooth="yes"/>
			<point x="183" y="399"/>
			<point x="184" y="397"/>
			<point x="186" y="397" type="curve" smooth="yes"/>
			<point x="209" y="397"/>
			<point x="305" y="400"/>
			<point x="323" y="402" type="curve" smooth="yes"/>
			<point x="344" y="404"/>
			<point x="413" y="408"/>
			<point x="415" y="408" type="curve" smooth="yes"/>
			<point x="419" y="408"/>
			<point x="429" y="401"/>
			<point x="429" y="392" type="curve" smooth="yes"/>
			<point x="429" y="387"/>
			<point x="423" y="343"/>
		</contour>
	</outline>
	<anchor name="caret_1" x="193" y="0"/>
</glyph>
<glyph name="f_k" format="2">
	<advance width="725"/>
	<outline>
		<contour>
			<point x="562" y="379" type="curve" smooth="yes"/>
			<point x="505" y="379"/>
			<point x="427" y="285"/>
			<point x="415" y="225" type="curve"/>
			<point x="480" y="225"/>
			<point x="595" y="265"/>
			<point x="595" y="346" type="curve" smooth="yes"/>
			<point x="595" y="364"/>
			<point x="589" y="379"/>
		</contour>
		<contour>
			<point x="408" y="546" type="line" smooth="yes"/>
			<point x="409" y="551"/>
			<point x="412" y="571"/>
			<point x="412" y="575" type="curve" smooth="yes"/>
			<point x="412" y="617"/>
			<point x="367" y="646"/>
			<point x="321" y="646" type="curve" smooth="yes"/>
			<point x="257" y="646"/>
			<point x="210" y="565"/>
			<point x="183" y="403" type="curve" smooth="yes"/>
			<point x="183" y="401" type="line" smooth="yes"/>
			<point x="183" y="399"/>
			<point x="185" y="397"/>
			<point x="186" y="397" type="curve" smooth="yes"/>
			<point x="298" y="397" type="line" smooth="yes"/>
			<point x="302" y="397"/>
			<point x="303" y="391"/>
			<point x="303" y="386" type="curve" smooth="yes"/>
			<point x="303" y="372"/>
			<point x="297" y="361"/>
			<point x="292" y="353" type="curve"/>
			<point x="178" y="353" type="line" smooth="yes"/>
			<point x="176" y="353"/>
			<point x="173" y="353"/>
			<point x="172" y="345" type="curve" smooth="yes"/>
			<point x="118" y="53" type="line" smooth="yes"/>
			<point x="85" y="-138"/>
			<point x="-8" y="-226"/>
			<point x="-93" y="-226" type="curve" smooth="yes"/>
			<point x="-143" y="-226"/>
			<point x="-166" y="-203"/>
			<point x="-172" y="-186" type="curve"/>
			<point x="-173" y="-157"/>
			<point x="-155" y="-128"/>
			<point x="-132" y="-128" type="curve" smooth="yes"/>
			<point x="-106" y="-128"/>
			<point x="-101" y="-188"/>
			<point x="-60" y="-188" type="curve" smooth="yes"/>
			<point x="-6" y="-188"/>
			<point x="35" y="-41"/>
			<point x="45" y="15" type="curve" smooth="yes"/>
			<point x="104" y="346" type="line"/>
			<point x="104" y="348" type="line" smooth="yes"/>
			<point x="104" y="351"/>
			<point x="103" y="353"/>
			<point x="101" y="353" type="curve" smooth="yes"/>
			<point x="37" y="353" type="line" smooth="yes"/>
			<point x="36" y="353"/>
			<point x="35" y="353"/>
			<point x="35" y="355" type="curve" smooth="yes"/>
			<point x="35" y="365"/>
			<point x="60" y="397"/>
			<point x="82" y="397" type="curve" smooth="yes"/>
			<point x="110" y="397" type="line" smooth="yes"/>
			<point x="113" y="397"/>
			<point x="115" y="402"/>
			<point x="116" y="406" type="curve" smooth="yes"/>
			<point x="142" y="568"/>
			<point x="241" y="683"/>
			<point x="339" y="683" type="curve" smooth="yes"/>
			<point x="392" y="683"/>
			<point x="420" y="662"/>
			<point x="432" y="662" type="curve" smooth="yes"/>
			<point x="453" y="662"/>
			<point x="498" y="678"/>
			<point x="508" y="678" type="curve"/>
			<point x="513" y="678"/>
			<point x="513" y="666"/>
			<point x="513" y="662" type="curve"/>
			<point x="513" y="662"/>
			<point x="494" y="631"/>
			<point x="483" y="577" type="curve" smooth="yes"/>
			<point x="433" y="314" type="line"/>
			<point x="438" y="318"/>
			<point x="514" y="425"/>
			<point x="598" y="425" type="curve" smooth="yes"/>
			<point x="636" y="425"/>
			<point x="671" y="396"/>
			<point x="671" y="358" type="curve" smooth="yes"/>
			<point x="671" y="269"/>
			<point x="573" y="225"/>
			<point x="465" y="206" type="curve"/>
			<point x="551" y="77"/>
			<point x="578" y="50"/>
			<point x="618" y="50" type="curve" smooth="yes"/>
			<point x="635" y="50"/>
			<point x="674" y="90"/>
			<point x="685" y="104" type="curve"/>
			<point x="688" y="104"/>
			<point x="694" y="91"/>
			<point x="694" y="86" type="curve"/>
			<point x="686" y="72"/>
			<point x="618" y="-4"/>
			<point x="575" y="-4" type="curve" smooth="yes"/>
			<point x="498" y="-4"/>
			<point x="449" y="117"/>
			<point x="407" y="187" type="curve"/>
			<point x="371" y="0" type="line"/>
			<point x="360" y="-3"/>
			<point x="348" y="-5"/>
			<point x="337" y="-5" type="curve" smooth="yes"/>
			<point x="326" y="-5"/>
			<point x="314" y="-3"/>
			<point x="302" y="0" type="curve"/>
		</contour>
	</outline>
	<anchor name="caret_1" x="204" y="0"/>
</glyph>
<glyph name="guillemotright.latn" format="2">
	<advance width="470"/>
	<outline>
		<contour>
			<point x="271" y="240" type="curve" smooth="yes"/>
			<point x="271" y="234"/>
			<point x="268" y="228"/>
			<point x="266" y="225" type="curve"/>
			<point x="138" y="148"/>
			<point x="63" y="70"/>
			<point x="62" y="69" type="curve"/>
			<point x="46" y="74"/>
			<point x="42" y="78"/>
			<point x="40" y="81" type="curve"/>
			<point x="46" y="102"/>
			<point x="140" y="201"/>
			<point x="185" y="241" type="curve"/>
			<point x="140" y="281"/>
			<point x="46" y="380"/>
			<point x="40" y="401" type="curve"/>
			<point x="42" y="404"/>
			<point x="46" y="408"/>
			<point x="62" y="413" type="curve"/>
			<point x="63" y="412"/>
			<point x="138" y="335"/>
			<point x="266" y="258" type="curve"/>
			<point x="270" y="249"/>
			<point x="271" y="250"/>
		</contour>
		<contour>
			<point x="446" y="240" type="curve" smooth="yes"/>
			<point x="446" y="234"/>
			<point x="443" y="228"/>
			<point x="441" y="225" type="curve"/>
			<point x="313" y="148"/>
			<point x="238" y="70"/>
			<point x="237" y="69" type="curve"/>
			<point x="221" y="74"/>
			<point x="218" y="78"/>
			<point x="216" y="81" type="curve"/>
			<point x="222" y="102"/>
			<point x="315" y="201"/>
			<point x="360" y="241" type="curve"/>
			<point x="315" y="281"/>
			<point x="222" y="380"/>
			<point x="216" y="401" type="curve"/>
			<point x="218" y="404"/>
			<point x="221" y="408"/>
			<point x="237" y="413" type="curve"/>
			<point x="238" y="412"/>
			<point x="313" y="335"/>
			<point x="441" y="258" type="curve"/>
			<point x="445" y="249"/>
			<point x="446" y="250"/>
		</contour>
	</outline>
</glyph>
<glyph name="parenleft.latn" format="2">
	<advance width="255"/>
	<outline>
		<contour>
			<point x="107" y="278" type="curve" smooth="yes"/>
			<point x="107" y="125"/>
			<point x="158" y="-46"/>
			<point x="250" y="-127" type="curve"/>
			<point x="251" y="-127"/>
			<point x="238" y="-142"/>
			<point x="231" y="-146" type="curve"/>
			<point x="117" y="-56"/>
			<point x="36" y="89"/>
			<point x="36" y="278" type="curve" smooth="yes"/>
			<point x="36" y="468"/>
			<point x="117" y="612"/>
			<point x="231" y="702" type="curve"/>
			<point x="238" y="698"/>
			<point x="251" y="683"/>
			<point x="250" y="683" type="curve"/>
			<point x="158" y="602"/>
			<point x="107" y="432"/>
		</contour>
	</outline>
</glyph>
<glyph name="uni0302.cap" format="2">
	<advance width="288"/>
	<outline>
		<contour>
			<point x="312" y="816" type="curve" smooth="yes"/>
			<point x="316" y="816"/>
			<point x="319" y="814"/>
			<point x="321" y="810" type="curve" smooth="yes"/>
			<point x="346" y="769"/>
			<point x="364" y="744"/>
			<point x="397" y="704" type="curve"/>
			<point x="396" y="698"/>
			<point x="389" y="694"/>
			<point x="383" y="694" type="curve"/>
			<point x="347" y="718"/>
			<point x="296" y="752"/>
			<point x="296" y="752" type="curve"/>
			<point x="296" y="752"/>
			<point x="226" y="717"/>
			<point x="179" y="694" type="curve"/>
			<point x="173" y="694"/>
			<point x="168" y="698"/>
			<point x="169" y="704" type="curve"/>
			<point x="224" y="745"/>
			<point x="251" y="768"/>
			<point x="298" y="810" type="curve" smooth="yes"/>
			<point x="303" y="814"/>
			<point x="308" y="816"/>
		</contour>
	</outline>
</glyph>
<glyph name="uni0327.cap" format="2">
	<advance width="392"/>
	<outline>
		<contour>
			<point x="187" y="-26" type="line"/>
			<point x="214" y="-26" type="line" smooth="yes"/>
			<point x="242" y="-26"/>
			<point x="256" y="-53"/>
			<point x="250" y="-83" type="curve" smooth="yes"/>
			<point x="239" y="-137"/>
			<point x="188" y="-170"/>
			<point x="132" y="-170" type="curve" smooth="yes"/>
			<point x="119" y="-170"/>
			<point x="104" y="-165"/>
			<point x="98" y="-160" type="curve"/>
			<point x="98" y="-154"/>
			<point x="97" y="-151"/>
			<point x="98" y="-144" type="curve" smooth="yes"/>
			<point x="100" y="-136"/>
			<point x="109" y="-128"/>
			<point x="116" y="-128" type="curve" smooth="yes"/>
			<point x="129" y="-128"/>
			<point x="135" y="-143"/>
			<point x="153" y="-143" type="curve" smooth="yes"/>
			<point x="183" y="-143"/>
			<point x="202" y="-124"/>
			<point x="206" y="-104" type="curve" smooth="yes"/>
			<point x="211" y="-77"/>
			<point x="195" y="-65"/>
			<point x="181" y="-65" type="curve" smooth="yes"/>
			<point x="169" y="-65"/>
			<point x="163" y="-68"/>
			<point x="151" y="-73" type="curve" smooth="yes"/>
			<point x="149" y="-73"/>
			<point x="140" y="-64"/>
			<point x="143" y="-59" type="curve" smooth="yes"/>
			<point x="157" y="-41"/>
			<point x="177" y="-17"/>
			<point x="189" y="0" type="curve"/>
			<point x="211" y="0" type="line"/>
		</contour>
	</outline>
</glyph>
